<svg version="1.1" viewBox="0.0 0.0 729.0 451.0" fill="none" stroke="none" stroke-linecap="square" stroke-miterlimit="10" width="729" height="451" xmlns:xlink="http://www.w3.org/1999/xlink" xmlns="http://www.w3.org/2000/svg"><path fill="#ffffff" d="M0 0L729.0 0L729.0 451.0L0 451.0L0 0Z" fill-rule="nonzero"/><path stroke="#333333" stroke-width="1.0" stroke-linecap="butt" d="M88.5 389.5L706.5 389.5" fill-rule="nonzero"/><path stroke="#cccccc" stroke-width="1.0" stroke-linecap="butt" d="M88.5 379.5L706.5 379.5" fill-rule="nonzero"/><path stroke="#cccccc" stroke-width="1.0" stroke-linecap="butt" d="M88.5 369.5L706.5 369.5" fill-rule="nonzero"/><path stroke="#cccccc" stroke-width="1.0" stroke-linecap="butt" d="M88.5 360.5L706.5 360.5" fill-rule="nonzero"/><path stroke="#cccccc" stroke-width="1.0" stroke-linecap="butt" d="M88.5 350.5L706.5 350.5" fill-rule="nonzero"/><path stroke="#cccccc" stroke-width="1.0" stroke-linecap="butt" d="M88.5 340.5L706.5 340.5" fill-rule="nonzero"/><path stroke="#cccccc" stroke-width="1.0" stroke-linecap="butt" d="M88.5 331.5L706.5 331.5" fill-rule="nonzero"/><path stroke="#cccccc" stroke-width="1.0" stroke-linecap="butt" d="M88.5 321.5L706.5 321.5" fill-rule="nonzero"/><path stroke="#cccccc" stroke-width="1.0" stroke-linecap="butt" d="M88.5 311.5L706.5 311.5" fill-rule="nonzero"/><path stroke="#cccccc" stroke-width="1.0" stroke-linecap="butt" d="M88.5 301.5L706.5 301.5" fill-rule="nonzero"/><path stroke="#cccccc" stroke-width="1.0" stroke-linecap="butt" d="M88.5 292.5L706.5 292.5" fill-rule="nonzero"/><path stroke="#cccccc" stroke-width="1.0" stroke-linecap="butt" d="M88.5 282.5L706.5 282.5" fill-rule="nonzero"/><path stroke="#cccccc" stroke-width="1.0" stroke-linecap="butt" d="M88.5 272.5L706.5 272.5" fill-rule="nonzero"/><path stroke="#cccccc" stroke-width="1.0" stroke-linecap="butt" d="M88.5 262.5L706.5 262.5" fill-rule="nonzero"/><path stroke="#cccccc" stroke-width="1.0" stroke-linecap="butt" d="M88.5 253.5L706.5 253.5" fill-rule="nonzero"/><path stroke="#cccccc" stroke-width="1.0" stroke-linecap="butt" d="M88.5 243.5L706.5 243.5" fill-rule="nonzero"/><path stroke="#cccccc" stroke-width="1.0" stroke-linecap="butt" d="M88.5 233.5L706.5 233.5" fill-rule="nonzero"/><path stroke="#cccccc" stroke-width="1.0" stroke-linecap="butt" d="M88.5 224.5L706.5 224.5" fill-rule="nonzero"/><path stroke="#cccccc" stroke-width="1.0" stroke-linecap="butt" d="M88.5 214.5L706.5 214.5" fill-rule="nonzero"/><path stroke="#cccccc" stroke-width="1.0" stroke-linecap="butt" d="M88.5 204.5L706.5 204.5" fill-rule="nonzero"/><path stroke="#cccccc" stroke-width="1.0" stroke-linecap="butt" d="M88.5 194.5L706.5 194.5" fill-rule="nonzero"/><path stroke="#cccccc" stroke-width="1.0" stroke-linecap="butt" d="M88.5 185.5L706.5 185.5" fill-rule="nonzero"/><path stroke="#cccccc" stroke-width="1.0" stroke-linecap="butt" d="M88.5 175.5L706.5 175.5" fill-rule="nonzero"/><path stroke="#cccccc" stroke-width="1.0" stroke-linecap="butt" d="M88.5 165.5L706.5 165.5" fill-rule="nonzero"/><path stroke="#cccccc" stroke-width="1.0" stroke-linecap="butt" d="M88.5 155.5L706.5 155.5" fill-rule="nonzero"/><path stroke="#cccccc" stroke-width="1.0" stroke-linecap="butt" d="M88.5 146.5L706.5 146.5" fill-rule="nonzero"/><path stroke="#cccccc" stroke-width="1.0" stroke-linecap="butt" d="M88.5 136.5L706.5 136.5" fill-rule="nonzero"/><path stroke="#cccccc" stroke-width="1.0" stroke-linecap="butt" d="M88.5 126.5L706.5 126.5" fill-rule="nonzero"/><path stroke="#cccccc" stroke-width="1.0" stroke-linecap="butt" d="M88.5 117.5L706.5 117.5" fill-rule="nonzero"/><path stroke="#cccccc" stroke-width="1.0" stroke-linecap="butt" d="M88.5 107.5L706.5 107.5" fill-rule="nonzero"/><path stroke="#cccccc" stroke-width="1.0" stroke-linecap="butt" d="M88.5 97.5L706.5 97.5" fill-rule="nonzero"/><clipPath id="id_0"><path d="M88.55 97.61667L706.45 97.61667L706.45 389.45L88.55 389.45L88.55 97.61667Z" clip-rule="nonzero"/></clipPath><path stroke="#4285f4" stroke-width="2.0" stroke-linecap="butt" clip-path="url(#id_0)" d="M104.810524 106.27439L137.33157 101.429955L169.85263 102.694565L202.37369 102.130356L234.89473 100.535L267.4158 103.12259L299.93683 108.02539L332.4579 106.371666L364.97894 107.20825L397.5 103.064224L430.02106 104.42611L462.5421 105.12651L495.06317 102.30546L527.5842 105.0876L560.1053 103.180954L592.62634 102.538925L625.14734 102.48055L657.6684 100.1848L690.18945 101.66342" fill-rule="nonzero"/><path stroke="#ea4335" stroke-width="2.0" stroke-linecap="butt" clip-path="url(#id_0)" d="M104.810524 129.87398L137.33157 130.14636L169.85263 130.8273L202.37369 132.26701L234.89473 134.29039L267.4158 131.0024L299.93683 134.60168L332.4579 129.85452L364.97894 131.91681L397.5 129.34868L430.02106 133.12306L462.5421 130.98294L495.06317 132.16974L527.5842 128.76501L560.1053 130.43819L592.62634 129.32922L625.14734 129.64052L657.6684 138.1815L690.18945 132.46156" fill-rule="nonzero"/><path fill="#000000" fill-opacity="0.0" clip-path="url(#id_0)" d="M107.810524 106.27439C107.810524 107.931244 106.467384 109.27439 104.810524 109.27439C103.15367 109.27439 101.810524 107.931244 101.810524 106.27439C101.810524 104.61754 103.15367 103.27439 104.810524 103.27439C106.467384 103.27439 107.810524 104.61754 107.810524 106.27439Z" fill-rule="nonzero"/><path fill="#000000" fill-opacity="0.0" clip-path="url(#id_0)" d="M140.33157 101.429955C140.33157 103.08681 138.98843 104.429955 137.33157 104.429955C135.67473 104.429955 134.33157 103.08681 134.33157 101.429955C134.33157 99.7731 135.67473 98.429955 137.33157 98.429955C138.98843 98.429955 140.33157 99.7731 140.33157 101.429955Z" fill-rule="nonzero"/><path fill="#000000" fill-opacity="0.0" clip-path="url(#id_0)" d="M172.85263 102.694565C172.85263 104.35142 171.50949 105.694565 169.85263 105.694565C168.19577 105.694565 166.85263 104.35142 166.85263 102.694565C166.85263 101.03771 168.19577 99.694565 169.85263 99.694565C171.50949 99.694565 172.85263 101.03771 172.85263 102.694565Z" fill-rule="nonzero"/><path fill="#000000" fill-opacity="0.0" clip-path="url(#id_0)" d="M205.37369 102.130356C205.37369 103.78721 204.03053 105.130356 202.37369 105.130356C200.71683 105.130356 199.37369 103.78721 199.37369 102.130356C199.37369 100.4735 200.71683 99.130356 202.37369 99.130356C204.03053 99.130356 205.37369 100.4735 205.37369 102.130356Z" fill-rule="nonzero"/><path fill="#000000" fill-opacity="0.0" clip-path="url(#id_0)" d="M237.89473 100.535C237.89473 102.19186 236.55159 103.535 234.89473 103.535C233.23788 103.535 231.89473 102.19186 231.89473 100.535C231.89473 98.87814 233.23788 97.535 234.89473 97.535C236.55159 97.535 237.89473 98.87814 237.89473 100.535Z" fill-rule="nonzero"/><path fill="#000000" fill-opacity="0.0" clip-path="url(#id_0)" d="M270.4158 103.12259C270.4158 104.77944 269.07263 106.12259 267.4158 106.12259C265.75894 106.12259 264.4158 104.77944 264.4158 103.12259C264.4158 101.46574 265.75894 100.12259 267.4158 100.12259C269.07263 100.12259 270.4158 101.46574 270.4158 103.12259Z" fill-rule="nonzero"/><path fill="#000000" fill-opacity="0.0" clip-path="url(#id_0)" d="M302.93683 108.02539C302.93683 109.68224 301.5937 111.02539 299.93683 111.02539C298.28 111.02539 296.93683 109.68224 296.93683 108.02539C296.93683 106.36854 298.28 105.02539 299.93683 105.02539C301.5937 105.02539 302.93683 106.36854 302.93683 108.02539Z" fill-rule="nonzero"/><path fill="#000000" fill-opacity="0.0" clip-path="url(#id_0)" d="M335.4579 106.371666C335.4579 108.02852 334.11475 109.371666 332.4579 109.371666C330.80103 109.371666 329.4579 108.02852 329.4579 106.371666C329.4579 104.71481 330.80103 103.371666 332.4579 103.371666C334.11475 103.371666 335.4579 104.71481 335.4579 106.371666Z" fill-rule="nonzero"/><path fill="#000000" fill-opacity="0.0" clip-path="url(#id_0)" d="M367.97894 107.20825C367.97894 108.86511 366.6358 110.20825 364.97894 110.20825C363.32208 110.20825 361.97894 108.86511 361.97894 107.20825C361.97894 105.5514 363.32208 104.20825 364.97894 104.20825C366.6358 104.20825 367.97894 105.5514 367.97894 107.20825Z" fill-rule="nonzero"/><path fill="#000000" fill-opacity="0.0" clip-path="url(#id_0)" d="M400.5 103.064224C400.5 104.72108 399.15686 106.064224 397.5 106.064224C395.84314 106.064224 394.5 104.72108 394.5 103.064224C394.5 101.40737 395.84314 100.064224 397.5 100.064224C399.15686 100.064224 400.5 101.40737 400.5 103.064224Z" fill-rule="nonzero"/><path fill="#000000" fill-opacity="0.0" clip-path="url(#id_0)" d="M433.02106 104.42611C433.02106 106.08296 431.67792 107.42611 430.02106 107.42611C428.3642 107.42611 427.02106 106.08296 427.02106 104.42611C427.02106 102.76926 428.3642 101.42611 430.02106 101.42611C431.67792 101.42611 433.02106 102.76926 433.02106 104.42611Z" fill-rule="nonzero"/><path fill="#000000" fill-opacity="0.0" clip-path="url(#id_0)" d="M465.5421 105.12651C465.5421 106.78336 464.19897 108.12651 462.5421 108.12651C460.88525 108.12651 459.5421 106.78336 459.5421 105.12651C459.5421 103.46966 460.88525 102.12651 462.5421 102.12651C464.19897 102.12651 465.5421 103.46966 465.5421 105.12651Z" fill-rule="nonzero"/><path fill="#000000" fill-opacity="0.0" clip-path="url(#id_0)" d="M498.06317 102.30546C498.06317 103.96231 496.72 105.30546 495.06317 105.30546C493.4063 105.30546 492.06317 103.96231 492.06317 102.30546C492.06317 100.6486 493.4063 99.30546 495.06317 99.30546C496.72 99.30546 498.06317 100.6486 498.06317 102.30546Z" fill-rule="nonzero"/><path fill="#000000" fill-opacity="0.0" clip-path="url(#id_0)" d="M530.5842 105.0876C530.5842 106.74445 529.2411 108.0876 527.5842 108.0876C525.92737 108.0876 524.5842 106.74445 524.5842 105.0876C524.5842 103.43075 525.92737 102.0876 527.5842 102.0876C529.2411 102.0876 530.5842 103.43075 530.5842 105.0876Z" fill-rule="nonzero"/><path fill="#000000" fill-opacity="0.0" clip-path="url(#id_0)" d="M563.1053 103.180954C563.1053 104.83781 561.76215 106.180954 560.1053 106.180954C558.4484 106.180954 557.1053 104.83781 557.1053 103.180954C557.1053 101.5241 558.4484 100.180954 560.1053 100.180954C561.76215 100.180954 563.1053 101.5241 563.1053 103.180954Z" fill-rule="nonzero"/><path fill="#000000" fill-opacity="0.0" clip-path="url(#id_0)" d="M595.62634 102.538925C595.62634 104.19578 594.28314 105.538925 592.62634 105.538925C590.9695 105.538925 589.62634 104.19578 589.62634 102.538925C589.62634 100.882065 590.9695 99.538925 592.62634 99.538925C594.28314 99.538925 595.62634 100.882065 595.62634 102.538925Z" fill-rule="nonzero"/><path fill="#000000" fill-opacity="0.0" clip-path="url(#id_0)" d="M628.14734 102.48055C628.14734 104.13741 626.8042 105.48055 625.14734 105.48055C623.49054 105.48055 622.14734 104.13741 622.14734 102.48055C622.14734 100.8237 623.49054 99.48055 625.14734 99.48055C626.8042 99.48055 628.14734 100.8237 628.14734 102.48055Z" fill-rule="nonzero"/><path fill="#000000" fill-opacity="0.0" clip-path="url(#id_0)" d="M660.6684 100.1848C660.6684 101.84165 659.32526 103.1848 657.6684 103.1848C656.0116 103.1848 654.6684 101.84165 654.6684 100.1848C654.6684 98.52795 656.0116 97.1848 657.6684 97.1848C659.32526 97.1848 660.6684 98.52795 660.6684 100.1848Z" fill-rule="nonzero"/><path fill="#000000" fill-opacity="0.0" clip-path="url(#id_0)" d="M693.18945 101.66342C693.18945 103.320274 691.8463 104.66342 690.18945 104.66342C688.5326 104.66342 687.18945 103.320274 687.18945 101.66342C687.18945 100.00657 688.5326 98.66342 690.18945 98.66342C691.8463 98.66342 693.18945 100.00657 693.18945 101.66342Z" fill-rule="nonzero"/><path fill="#000000" fill-opacity="0.0" clip-path="url(#id_0)" d="M107.810524 129.87398C107.810524 131.53084 106.467384 132.87398 104.810524 132.87398C103.15367 132.87398 101.810524 131.53084 101.810524 129.87398C101.810524 128.21712 103.15367 126.87398 104.810524 126.87398C106.467384 126.87398 107.810524 128.21712 107.810524 129.87398Z" fill-rule="nonzero"/><path fill="#000000" fill-opacity="0.0" clip-path="url(#id_0)" d="M140.33157 130.14636C140.33157 131.8032 138.98843 133.14636 137.33157 133.14636C135.67473 133.14636 134.33157 131.8032 134.33157 130.14636C134.33157 128.4895 135.67473 127.146355 137.33157 127.146355C138.98843 127.146355 140.33157 128.4895 140.33157 130.14636Z" fill-rule="nonzero"/><path fill="#000000" fill-opacity="0.0" clip-path="url(#id_0)" d="M172.85263 130.8273C172.85263 132.48416 171.50949 133.8273 169.85263 133.8273C168.19577 133.8273 166.85263 132.48416 166.85263 130.8273C166.85263 129.17044 168.19577 127.8273 169.85263 127.8273C171.50949 127.8273 172.85263 129.17044 172.85263 130.8273Z" fill-rule="nonzero"/><path fill="#000000" fill-opacity="0.0" clip-path="url(#id_0)" d="M205.37369 132.26701C205.37369 133.92386 204.03053 135.26701 202.37369 135.26701C200.71683 135.26701 199.37369 133.92386 199.37369 132.26701C199.37369 130.61015 200.71683 129.26701 202.37369 129.26701C204.03053 129.26701 205.37369 130.61015 205.37369 132.26701Z" fill-rule="nonzero"/><path fill="#000000" fill-opacity="0.0" clip-path="url(#id_0)" d="M237.89473 134.29039C237.89473 135.94725 236.55159 137.29039 234.89473 137.29039C233.23788 137.29039 231.89473 135.94725 231.89473 134.29039C231.89473 132.63353 233.23788 131.29039 234.89473 131.29039C236.55159 131.29039 237.89473 132.63353 237.89473 134.29039Z" fill-rule="nonzero"/><path fill="#000000" fill-opacity="0.0" clip-path="url(#id_0)" d="M270.4158 131.0024C270.4158 132.65926 269.07263 134.0024 267.4158 134.0024C265.75894 134.0024 264.4158 132.65926 264.4158 131.0024C264.4158 129.34555 265.75894 128.0024 267.4158 128.0024C269.07263 128.0024 270.4158 129.34555 270.4158 131.0024Z" fill-rule="nonzero"/><path fill="#000000" fill-opacity="0.0" clip-path="url(#id_0)" d="M302.93683 134.60168C302.93683 136.25853 301.5937 137.60168 299.93683 137.60168C298.28 137.60168 296.93683 136.25853 296.93683 134.60168C296.93683 132.94482 298.28 131.60168 299.93683 131.60168C301.5937 131.60168 302.93683 132.94482 302.93683 134.60168Z" fill-rule="nonzero"/><path fill="#000000" fill-opacity="0.0" clip-path="url(#id_0)" d="M335.4579 129.85452C335.4579 131.51138 334.11475 132.85452 332.4579 132.85452C330.80103 132.85452 329.4579 131.51138 329.4579 129.85452C329.4579 128.19766 330.80103 126.85452 332.4579 126.85452C334.11475 126.85452 335.4579 128.19766 335.4579 129.85452Z" fill-rule="nonzero"/><path fill="#000000" fill-opacity="0.0" clip-path="url(#id_0)" d="M367.97894 131.91681C367.97894 133.57367 366.6358 134.91681 364.97894 134.91681C363.32208 134.91681 361.97894 133.57367 361.97894 131.91681C361.97894 130.25996 363.32208 128.91681 364.97894 128.91681C366.6358 128.91681 367.97894 130.25996 367.97894 131.91681Z" fill-rule="nonzero"/><path fill="#000000" fill-opacity="0.0" clip-path="url(#id_0)" d="M400.5 129.34868C400.5 131.00554 399.15686 132.34868 397.5 132.34868C395.84314 132.34868 394.5 131.00554 394.5 129.34868C394.5 127.691826 395.84314 126.34868 397.5 126.34868C399.15686 126.34868 400.5 127.691826 400.5 129.34868Z" fill-rule="nonzero"/><path fill="#000000" fill-opacity="0.0" clip-path="url(#id_0)" d="M433.02106 133.12306C433.02106 134.7799 431.67792 136.12306 430.02106 136.12306C428.3642 136.12306 427.02106 134.7799 427.02106 133.12306C427.02106 131.4662 428.3642 130.12306 430.02106 130.12306C431.67792 130.12306 433.02106 131.4662 433.02106 133.12306Z" fill-rule="nonzero"/><path fill="#000000" fill-opacity="0.0" clip-path="url(#id_0)" d="M465.5421 130.98294C465.5421 132.6398 464.19897 133.98294 462.5421 133.98294C460.88525 133.98294 459.5421 132.6398 459.5421 130.98294C459.5421 129.3261 460.88525 127.98294 462.5421 127.98294C464.19897 127.98294 465.5421 129.3261 465.5421 130.98294Z" fill-rule="nonzero"/><path fill="#000000" fill-opacity="0.0" clip-path="url(#id_0)" d="M498.06317 132.16974C498.06317 133.82658 496.72 135.16974 495.06317 135.16974C493.4063 135.16974 492.06317 133.82658 492.06317 132.16974C492.06317 130.51288 493.4063 129.16974 495.06317 129.16974C496.72 129.16974 498.06317 130.51288 498.06317 132.16974Z" fill-rule="nonzero"/><path fill="#000000" fill-opacity="0.0" clip-path="url(#id_0)" d="M530.5842 128.76501C530.5842 130.42186 529.2411 131.76501 527.5842 131.76501C525.92737 131.76501 524.5842 130.42186 524.5842 128.76501C524.5842 127.108154 525.92737 125.765015 527.5842 125.765015C529.2411 125.765015 530.5842 127.108154 530.5842 128.76501Z" fill-rule="nonzero"/><path fill="#000000" fill-opacity="0.0" clip-path="url(#id_0)" d="M563.1053 130.43819C563.1053 132.09505 561.76215 133.43819 560.1053 133.43819C558.4484 133.43819 557.1053 132.09505 557.1053 130.43819C557.1053 128.78134 558.4484 127.43819 560.1053 127.43819C561.76215 127.43819 563.1053 128.78134 563.1053 130.43819Z" fill-rule="nonzero"/><path fill="#000000" fill-opacity="0.0" clip-path="url(#id_0)" d="M595.62634 129.32922C595.62634 130.98608 594.28314 132.32922 592.62634 132.32922C590.9695 132.32922 589.62634 130.98608 589.62634 129.32922C589.62634 127.67237 590.9695 126.32922 592.62634 126.32922C594.28314 126.32922 595.62634 127.67237 595.62634 129.32922Z" fill-rule="nonzero"/><path fill="#000000" fill-opacity="0.0" clip-path="url(#id_0)" d="M628.14734 129.64052C628.14734 131.29736 626.8042 132.64052 625.14734 132.64052C623.49054 132.64052 622.14734 131.29736 622.14734 129.64052C622.14734 127.98366 623.49054 126.64051 625.14734 126.64051C626.8042 126.64051 628.14734 127.98366 628.14734 129.64052Z" fill-rule="nonzero"/><path fill="#000000" fill-opacity="0.0" clip-path="url(#id_0)" d="M660.6684 138.1815C660.6684 139.83835 659.32526 141.1815 657.6684 141.1815C656.0116 141.1815 654.6684 139.83835 654.6684 138.1815C654.6684 136.52464 656.0116 135.1815 657.6684 135.1815C659.32526 135.1815 660.6684 136.52464 660.6684 138.1815Z" fill-rule="nonzero"/><path fill="#000000" fill-opacity="0.0" clip-path="url(#id_0)" d="M693.18945 132.46156C693.18945 134.11842 691.8463 135.46156 690.18945 135.46156C688.5326 135.46156 687.18945 134.11842 687.18945 132.46156C687.18945 130.80472 688.5326 129.46156 690.18945 129.46156C691.8463 129.46156 693.18945 130.80472 693.18945 132.46156Z" fill-rule="nonzero"/><path fill="#000000" d="M375.26562 425.45L374.28125 425.45L374.28125 416.85626L375.34375 416.85626L375.34375 419.91876Q376.01562 419.09064 377.04688 419.09064Q377.625 419.09064 378.125 419.325Q378.64062 419.54376 378.96875 419.96564Q379.3125 420.3875 379.5 420.98126Q379.6875 421.575 379.6875 422.2469Q379.6875 423.84064 378.89062 424.71564Q378.09375 425.59064 377.0 425.59064Q375.89062 425.59064 375.26562 424.66876L375.26562 425.45ZM375.25 422.29376Q375.25 423.40314 375.5625 423.90314Q376.0625 424.71564 376.90625 424.71564Q377.59375 424.71564 378.09375 424.1219Q378.60938 423.52814 378.60938 422.325Q378.60938 421.10626 378.125 420.52814Q377.64062 419.95 376.95312 419.95Q376.26562 419.95 375.75 420.5594Q375.25 421.15314 375.25 422.29376ZM385.35938 424.6844Q384.76562 425.1844 384.21875 425.3875Q383.6875 425.59064 383.0625 425.59064Q382.03125 425.59064 381.48438 425.09064Q380.9375 424.59064 380.9375 423.8094Q380.9375 423.35626 381.14062 422.98126Q381.34375 422.59064 381.6875 422.3719Q382.03125 422.1375 382.45312 422.02814Q382.75 421.9344 383.39062 421.85626Q384.65625 421.71564 385.26562 421.4969Q385.26562 421.27814 385.26562 421.23126Q385.26562 420.575 384.96875 420.3094Q384.5625 419.96564 383.76562 419.96564Q383.03125 419.96564 382.67188 420.23126Q382.3125 420.48126 382.14062 421.1375L381.10938 420.9969Q381.25 420.34064 381.57812 419.9344Q381.90625 419.52814 382.51562 419.3094Q383.125 419.09064 383.92188 419.09064Q384.71875 419.09064 385.21875 419.27814Q385.71875 419.46564 385.95312 419.7469Q386.1875 420.02814 386.28125 420.46564Q386.32812 420.73126 386.32812 421.4344L386.32812 422.84064Q386.32812 424.3094 386.39062 424.7Q386.46875 425.09064 386.67188 425.45L385.5625 425.45Q385.40625 425.1219 385.35938 424.6844ZM385.26562 422.325Q384.6875 422.5594 383.54688 422.73126Q382.89062 422.825 382.625 422.95Q382.35938 423.0594 382.20312 423.27814Q382.0625 423.4969 382.0625 423.77814Q382.0625 424.2 382.375 424.48126Q382.70312 424.7625 383.3125 424.7625Q383.92188 424.7625 384.39062 424.4969Q384.875 424.23126 385.09375 423.7625Q385.26562 423.40314 385.26562 422.71564L385.26562 422.325ZM387.875 423.59064L388.90625 423.4344Q389.0 424.0594 389.39062 424.3875Q389.79688 424.71564 390.53125 424.71564Q391.25 424.71564 391.59375 424.4344Q391.95312 424.1375 391.95312 423.73126Q391.95312 423.3719 391.64062 423.16876Q391.42188 423.02814 390.5625 422.8094Q389.40625 422.5125 388.95312 422.3094Q388.51562 422.09064 388.28125 421.71564Q388.04688 421.34064 388.04688 420.8719Q388.04688 420.46564 388.23438 420.10626Q388.42188 419.7469 388.75 419.5125Q389.0 419.34064 389.42188 419.21564Q389.84375 419.09064 390.34375 419.09064Q391.0625 419.09064 391.60938 419.3094Q392.17188 419.5125 392.4375 419.8719Q392.70312 420.23126 392.79688 420.825L391.76562 420.96564Q391.70312 420.4969 391.35938 420.23126Q391.03125 419.95 390.40625 419.95Q389.6875 419.95 389.375 420.2Q389.0625 420.4344 389.0625 420.7625Q389.0625 420.96564 389.1875 421.1219Q389.32812 421.29376 389.59375 421.40314Q389.75 421.46564 390.53125 421.66876Q391.65625 421.98126 392.09375 422.16876Q392.53125 422.35626 392.78125 422.71564Q393.03125 423.075 393.03125 423.6219Q393.03125 424.15314 392.71875 424.6219Q392.42188 425.075 391.84375 425.34064Q391.26562 425.59064 390.53125 425.59064Q389.3125 425.59064 388.67188 425.09064Q388.04688 424.575 387.875 423.59064ZM399.54688 423.45L400.64062 423.575Q400.39062 424.52814 399.6875 425.0594Q398.98438 425.59064 397.90625 425.59064Q396.54688 425.59064 395.73438 424.7469Q394.9375 423.90314 394.9375 422.3875Q394.9375 420.825 395.75 419.96564Q396.5625 419.09064 397.84375 419.09064Q399.09375 419.09064 399.875 419.9344Q400.67188 420.77814 400.67188 422.325Q400.67188 422.41876 400.67188 422.60626L396.03125 422.60626Q396.09375 423.6375 396.60938 424.1844Q397.125 424.71564 397.90625 424.71564Q398.48438 424.71564 398.89062 424.41876Q399.3125 424.10626 399.54688 423.45ZM396.09375 421.7469L399.5625 421.7469Q399.5 420.95 399.17188 420.5594Q398.65625 419.95 397.85938 419.95Q397.125 419.95 396.625 420.4344Q396.14062 420.91876 396.09375 421.7469ZM402.26562 425.45L402.26562 416.85626L403.32812 416.85626L403.32812 425.45L402.26562 425.45ZM405.29688 418.075L405.29688 416.85626L406.35938 416.85626L406.35938 418.075L405.29688 418.075ZM405.29688 425.45L405.29688 419.23126L406.35938 419.23126L406.35938 425.45L405.29688 425.45ZM408.29688 425.45L408.29688 419.23126L409.23438 419.23126L409.23438 420.10626Q409.92188 419.09064 411.21875 419.09064Q411.78125 419.09064 412.25 419.29376Q412.73438 419.4969 412.96875 419.825Q413.20312 420.15314 413.29688 420.59064Q413.34375 420.8875 413.34375 421.6219L413.34375 425.45L412.29688 425.45L412.29688 421.66876Q412.29688 421.0125 412.17188 420.7Q412.04688 420.3875 411.73438 420.2Q411.42188 419.9969 411.0 419.9969Q410.32812 419.9969 409.82812 420.4344Q409.34375 420.85626 409.34375 422.04376L409.34375 425.45L408.29688 425.45ZM419.54688 423.45L420.64062 423.575Q420.39062 424.52814 419.6875 425.0594Q418.98438 425.59064 417.90625 425.59064Q416.54688 425.59064 415.73438 424.7469Q414.9375 423.90314 414.9375 422.3875Q414.9375 420.825 415.75 419.96564Q416.5625 419.09064 417.84375 419.09064Q419.09375 419.09064 419.875 419.9344Q420.67188 420.77814 420.67188 422.325Q420.67188 422.41876 420.67188 422.60626L416.03125 422.60626Q416.09375 423.6375 416.60938 424.1844Q417.125 424.71564 417.90625 424.71564Q418.48438 424.71564 418.89062 424.41876Q419.3125 424.10626 419.54688 423.45ZM416.09375 421.7469L419.5625 421.7469Q419.5 420.95 419.17188 420.5594Q418.65625 419.95 417.85938 419.95Q417.125 419.95 416.625 420.4344Q416.14062 420.91876 416.09375 421.7469Z" fill-rule="nonzero"/><path fill="#000000" d="M32.784386 247.17397Q33.284386 247.76772 33.48751 248.31459Q33.690636 248.84584 33.690636 249.47084Q33.690636 250.50209 33.190636 251.04897Q32.690636 251.59584 31.909388 251.59584Q31.456263 251.59584 31.081263 251.39272Q30.690638 251.18959 30.471888 250.84584Q30.237513 250.50209 30.128138 250.08022Q30.034388 249.78334 29.956263 249.14272Q29.815638 247.87709 29.596888 247.26772Q29.378138 247.26772 29.331263 247.26772Q28.675013 247.26772 28.409388 247.56459Q28.065638 247.97084 28.065638 248.76772Q28.065638 249.50209 28.331263 249.86147Q28.581263 250.22084 29.237513 250.39272L29.096888 251.42397Q28.440638 251.28334 28.034388 250.95522Q27.628138 250.62709 27.409388 250.01772Q27.190638 249.40834 27.190638 248.61147Q27.190638 247.81459 27.378138 247.31459Q27.565638 246.81459 27.846888 246.58022Q28.128138 246.34584 28.565638 246.25209Q28.831263 246.20522 29.534388 246.20522L30.940638 246.20522Q32.409386 246.20522 32.80001 246.14272Q33.190636 246.06459 33.55001 245.86147L33.55001 246.97084Q33.221886 247.12709 32.784386 247.17397ZM30.425013 247.26772Q30.659388 247.84584 30.831263 248.98647Q30.925013 249.64272 31.050013 249.90834Q31.159388 250.17397 31.378138 250.33022Q31.596888 250.47084 31.878138 250.47084Q32.30001 250.47084 32.58126 250.15834Q32.86251 249.83022 32.86251 249.22084Q32.86251 248.61147 32.596886 248.14272Q32.33126 247.65834 31.862513 247.43959Q31.503138 247.26772 30.815638 247.26772L30.425013 247.26772ZM30.440638 244.62709Q28.706263 244.62709 27.878138 243.67397Q27.190638 242.87709 27.190638 241.72084Q27.190638 240.43959 28.034388 239.62709Q28.862513 238.79897 30.346888 238.79897Q31.550013 238.79897 32.23751 239.15834Q32.92501 239.51772 33.315636 240.22084Q33.690636 240.90834 33.690636 241.72084Q33.690636 243.01772 32.86251 243.83022Q32.01876 244.62709 30.440638 244.62709ZM30.440638 243.54897Q31.628138 243.54897 32.221886 243.03334Q32.815636 242.50209 32.815636 241.72084Q32.815636 240.92397 32.221886 240.40834Q31.628138 239.89272 30.409388 239.89272Q29.253138 239.89272 28.659388 240.42397Q28.065638 240.93959 28.065638 241.72084Q28.065638 242.50209 28.659388 243.03334Q29.237513 243.54897 30.440638 243.54897ZM32.61251 234.93959L33.534386 234.78334Q33.628136 235.23647 33.628136 235.58022Q33.628136 236.15834 33.45626 236.47084Q33.26876 236.78334 32.971886 236.92397Q32.67501 237.04897 31.721888 237.04897L28.143763 237.04897L28.143763 237.81459L27.331263 237.81459L27.331263 237.04897L25.784388 237.04897L25.159388 236.00209L27.331263 236.00209L27.331263 234.93959L28.143763 234.93959L28.143763 236.00209L31.784388 236.00209Q32.23751 236.00209 32.36251 235.95522Q32.48751 235.89272 32.565636 235.76772Q32.64376 235.64272 32.64376 235.40834Q32.64376 235.22084 32.61251 234.93959Z" fill-rule="nonzero"/><path fill="#000000" d="M76.05 389.21564Q76.05 387.6844 76.3625 386.7625Q76.675 385.825 77.28438 385.325Q77.90938 384.825 78.84688 384.825Q79.53438 384.825 80.05 385.10626Q80.58125 385.3875 80.925 385.91876Q81.26875 386.4344 81.45625 387.1844Q81.64375 387.9344 81.64375 389.21564Q81.64375 390.73126 81.33125 391.65314Q81.03438 392.575 80.40938 393.09064Q79.8 393.59064 78.84688 393.59064Q77.6125 393.59064 76.89375 392.7Q76.05 391.6375 76.05 389.21564ZM77.12813 389.21564Q77.12813 391.325 77.62813 392.02814Q78.12813 392.73126 78.84688 392.73126Q79.58125 392.73126 80.06563 392.02814Q80.56563 391.325 80.56563 389.21564Q80.56563 387.09064 80.06563 386.40314Q79.58125 385.7 78.83125 385.7Q78.1125 385.7 77.675 386.3094Q77.12813 387.09064 77.12813 389.21564Z" fill-rule="nonzero"/><path fill="#000000" d="M66.01875 373.99445L64.97188 373.99445L64.97188 367.2757Q64.58125 367.63507 63.95625 368.01007Q63.346874 368.36945 62.8625 368.54132L62.8625 367.5257Q63.7375 367.10382 64.39375 366.5257Q65.06563 365.93195 65.34688 365.36945L66.01875 365.36945L66.01875 373.99445ZM69.05 369.76007Q69.05 368.22882 69.3625 367.30695Q69.675 366.36945 70.28438 365.86945Q70.90938 365.36945 71.84688 365.36945Q72.53438 365.36945 73.05 365.6507Q73.58125 365.93195 73.925 366.4632Q74.26875 366.97882 74.45625 367.72882Q74.64375 368.47882 74.64375 369.76007Q74.64375 371.2757 74.33125 372.19757Q74.03438 373.11945 73.40938 373.63507Q72.8 374.13507 71.84688 374.13507Q70.6125 374.13507 69.89375 373.24445Q69.05 372.18195 69.05 369.76007ZM70.12813 369.76007Q70.12813 371.86945 70.62813 372.57257Q71.12813 373.2757 71.84688 373.2757Q72.58125 373.2757 73.06563 372.57257Q73.56563 371.86945 73.56563 369.76007Q73.56563 367.63507 73.06563 366.94757Q72.58125 366.24445 71.83125 366.24445Q71.1125 366.24445 70.675 366.85382Q70.12813 367.63507 70.12813 369.76007ZM76.05 369.76007Q76.05 368.22882 76.3625 367.30695Q76.675 366.36945 77.28438 365.86945Q77.90938 365.36945 78.84688 365.36945Q79.53438 365.36945 80.05 365.6507Q80.58125 365.93195 80.925 366.4632Q81.26875 366.97882 81.45625 367.72882Q81.64375 368.47882 81.64375 369.76007Q81.64375 371.2757 81.33125 372.19757Q81.03438 373.11945 80.40938 373.63507Q79.8 374.13507 78.84688 374.13507Q77.6125 374.13507 76.89375 373.24445Q76.05 372.18195 76.05 369.76007ZM77.12813 369.76007Q77.12813 371.86945 77.62813 372.57257Q78.12813 373.2757 78.84688 373.2757Q79.58125 373.2757 80.06563 372.57257Q80.56563 371.86945 80.56563 369.76007Q80.56563 367.63507 80.06563 366.94757Q79.58125 366.24445 78.83125 366.24445Q78.1125 366.24445 77.675 366.85382Q77.12813 367.63507 77.12813 369.76007Z" fill-rule="nonzero"/><path fill="#000000" d="M67.59688 353.52325L67.59688 354.53888L61.909374 354.53888Q61.909374 354.16388 62.034374 353.8045Q62.253124 353.22638 62.721874 352.66388Q63.20625 352.10138 64.1125 351.367Q65.51875 350.21075 66.00313 349.53888Q66.50313 348.867 66.50313 348.27325Q66.50313 347.64825 66.05 347.22638Q65.59688 346.78888 64.87813 346.78888Q64.1125 346.78888 63.659374 347.242Q63.20625 347.69513 63.190624 348.50763L62.1125 348.39825Q62.221874 347.1795 62.940624 346.5545Q63.675 345.91388 64.90938 345.91388Q66.14375 345.91388 66.8625 346.60138Q67.58125 347.28888 67.58125 348.3045Q67.58125 348.82013 67.3625 349.32013Q67.15938 349.8045 66.65938 350.367Q66.175 350.91388 65.05 351.867Q64.09688 352.66388 63.815624 352.96075Q63.55 353.242 63.378124 353.52325L67.59688 353.52325ZM69.05 350.3045Q69.05 348.77325 69.3625 347.85138Q69.675 346.91388 70.28438 346.41388Q70.90938 345.91388 71.84688 345.91388Q72.53438 345.91388 73.05 346.19513Q73.58125 346.47638 73.925 347.00763Q74.26875 347.52325 74.45625 348.27325Q74.64375 349.02325 74.64375 350.3045Q74.64375 351.82013 74.33125 352.742Q74.03438 353.66388 73.40938 354.1795Q72.8 354.6795 71.84688 354.6795Q70.6125 354.6795 69.89375 353.78888Q69.05 352.72638 69.05 350.3045ZM70.12813 350.3045Q70.12813 352.41388 70.62813 353.117Q71.12813 353.82013 71.84688 353.82013Q72.58125 353.82013 73.06563 353.117Q73.56563 352.41388 73.56563 350.3045Q73.56563 348.1795 73.06563 347.492Q72.58125 346.78888 71.83125 346.78888Q71.1125 346.78888 70.675 347.39825Q70.12813 348.1795 70.12813 350.3045ZM76.05 350.3045Q76.05 348.77325 76.3625 347.85138Q76.675 346.91388 77.28438 346.41388Q77.90938 345.91388 78.84688 345.91388Q79.53438 345.91388 80.05 346.19513Q80.58125 346.47638 80.925 347.00763Q81.26875 347.52325 81.45625 348.27325Q81.64375 349.02325 81.64375 350.3045Q81.64375 351.82013 81.33125 352.742Q81.03438 353.66388 80.40938 354.1795Q79.8 354.6795 78.84688 354.6795Q77.6125 354.6795 76.89375 353.78888Q76.05 352.72638 76.05 350.3045ZM77.12813 350.3045Q77.12813 352.41388 77.62813 353.117Q78.12813 353.82013 78.84688 353.82013Q79.58125 353.82013 80.06563 353.117Q80.56563 352.41388 80.56563 350.3045Q80.56563 348.1795 80.06563 347.492Q79.58125 346.78888 78.83125 346.78888Q78.1125 346.78888 77.675 347.39825Q77.12813 348.1795 77.12813 350.3045Z" fill-rule="nonzero"/><path fill="#000000" d="M62.05 332.81772L63.1125 332.6771Q63.284374 333.56772 63.721874 333.97397Q64.15938 334.3646 64.78438 334.3646Q65.53438 334.3646 66.05 333.84897Q66.56563 333.33334 66.56563 332.56772Q66.56563 331.84897 66.08125 331.38022Q65.6125 330.89584 64.87813 330.89584Q64.58125 330.89584 64.12813 331.02084L64.25313 330.08334Q64.3625 330.09897 64.425 330.09897Q65.09688 330.09897 65.62813 329.75522Q66.175 329.39584 66.175 328.66147Q66.175 328.08334 65.78438 327.70834Q65.39375 327.31772 64.76875 327.31772Q64.15938 327.31772 63.7375 327.70834Q63.33125 328.09897 63.221874 328.8646L62.159374 328.6771Q62.346874 327.63022 63.034374 327.0521Q63.721874 326.45834 64.7375 326.45834Q65.44063 326.45834 66.03438 326.77084Q66.62813 327.06772 66.94063 327.58334Q67.25313 328.09897 67.25313 328.69272Q67.25313 329.2396 66.95625 329.70834Q66.65938 330.16147 66.08125 330.4271Q66.83125 330.59897 67.25313 331.16147Q67.675 331.70834 67.675 332.5521Q67.675 333.6771 66.84688 334.45834Q66.03438 335.2396 64.78438 335.2396Q63.659374 335.2396 62.909374 334.56772Q62.159374 333.88022 62.05 332.81772ZM69.05 330.84897Q69.05 329.31772 69.3625 328.39584Q69.675 327.45834 70.28438 326.95834Q70.90938 326.45834 71.84688 326.45834Q72.53438 326.45834 73.05 326.7396Q73.58125 327.02084 73.925 327.5521Q74.26875 328.06772 74.45625 328.81772Q74.64375 329.56772 74.64375 330.84897Q74.64375 332.3646 74.33125 333.28647Q74.03438 334.20834 73.40938 334.72397Q72.8 335.22397 71.84688 335.22397Q70.6125 335.22397 69.89375 334.33334Q69.05 333.27084 69.05 330.84897ZM70.12813 330.84897Q70.12813 332.95834 70.62813 333.66147Q71.12813 334.3646 71.84688 334.3646Q72.58125 334.3646 73.06563 333.66147Q73.56563 332.95834 73.56563 330.84897Q73.56563 328.72397 73.06563 328.03647Q72.58125 327.33334 71.83125 327.33334Q71.1125 327.33334 70.675 327.94272Q70.12813 328.72397 70.12813 330.84897ZM76.05 330.84897Q76.05 329.31772 76.3625 328.39584Q76.675 327.45834 77.28438 326.95834Q77.90938 326.45834 78.84688 326.45834Q79.53438 326.45834 80.05 326.7396Q80.58125 327.02084 80.925 327.5521Q81.26875 328.06772 81.45625 328.81772Q81.64375 329.56772 81.64375 330.84897Q81.64375 332.3646 81.33125 333.28647Q81.03438 334.20834 80.40938 334.72397Q79.8 335.22397 78.84688 335.22397Q77.6125 335.22397 76.89375 334.33334Q76.05 333.27084 76.05 330.84897ZM77.12813 330.84897Q77.12813 332.95834 77.62813 333.66147Q78.12813 334.3646 78.84688 334.3646Q79.58125 334.3646 80.06563 333.66147Q80.56563 332.95834 80.56563 330.84897Q80.56563 328.72397 80.06563 328.03647Q79.58125 327.33334 78.83125 327.33334Q78.1125 327.33334 77.675 327.94272Q77.12813 328.72397 77.12813 330.84897Z" fill-rule="nonzero"/><path fill="#000000" d="M65.425 315.62778L65.425 313.56528L61.70625 313.56528L61.70625 312.59653L65.62813 307.03403L66.4875 307.03403L66.4875 312.59653L67.64375 312.59653L67.64375 313.56528L66.4875 313.56528L66.4875 315.62778L65.425 315.62778ZM65.425 312.59653L65.425 308.73715L62.7375 312.59653L65.425 312.59653ZM69.05 311.3934Q69.05 309.86215 69.3625 308.94028Q69.675 308.00278 70.28438 307.50278Q70.90938 307.00278 71.84688 307.00278Q72.53438 307.00278 73.05 307.28403Q73.58125 307.56528 73.925 308.09653Q74.26875 308.61215 74.45625 309.36215Q74.64375 310.11215 74.64375 311.3934Q74.64375 312.90903 74.33125 313.8309Q74.03438 314.75278 73.40938 315.2684Q72.8 315.7684 71.84688 315.7684Q70.6125 315.7684 69.89375 314.87778Q69.05 313.81528 69.05 311.3934ZM70.12813 311.3934Q70.12813 313.50278 70.62813 314.2059Q71.12813 314.90903 71.84688 314.90903Q72.58125 314.90903 73.06563 314.2059Q73.56563 313.50278 73.56563 311.3934Q73.56563 309.2684 73.06563 308.5809Q72.58125 307.87778 71.83125 307.87778Q71.1125 307.87778 70.675 308.48715Q70.12813 309.2684 70.12813 311.3934ZM76.05 311.3934Q76.05 309.86215 76.3625 308.94028Q76.675 308.00278 77.28438 307.50278Q77.90938 307.00278 78.84688 307.00278Q79.53438 307.00278 80.05 307.28403Q80.58125 307.56528 80.925 308.09653Q81.26875 308.61215 81.45625 309.36215Q81.64375 310.11215 81.64375 311.3934Q81.64375 312.90903 81.33125 313.8309Q81.03438 314.75278 80.40938 315.2684Q79.8 315.7684 78.84688 315.7684Q77.6125 315.7684 76.89375 314.87778Q76.05 313.81528 76.05 311.3934ZM77.12813 311.3934Q77.12813 313.50278 77.62813 314.2059Q78.12813 314.90903 78.84688 314.90903Q79.58125 314.90903 80.06563 314.2059Q80.56563 313.50278 80.56563 311.3934Q80.56563 309.2684 80.06563 308.5809Q79.58125 307.87778 78.83125 307.87778Q78.1125 307.87778 77.675 308.48715Q77.12813 309.2684 77.12813 311.3934Z" fill-rule="nonzero"/><path fill="#000000" d="M62.05 293.9222L63.159374 293.82846Q63.284374 294.64096 63.721874 295.0472Q64.175 295.45346 64.81563 295.45346Q65.56563 295.45346 66.09688 294.87534Q66.62813 294.2972 66.62813 293.3597Q66.62813 292.45346 66.1125 291.93784Q65.6125 291.4066 64.78438 291.4066Q64.28438 291.4066 63.8625 291.64096Q63.45625 291.87534 63.221874 292.2347L62.2375 292.1097L63.065624 287.70346L67.34688 287.70346L67.34688 288.70346L63.909374 288.70346L63.45625 291.01596Q64.22188 290.4691 65.06563 290.4691Q66.19063 290.4691 66.95625 291.25034Q67.7375 292.0316 67.7375 293.26596Q67.7375 294.4222 67.06563 295.2816Q66.2375 296.31284 64.81563 296.31284Q63.64375 296.31284 62.89375 295.6566Q62.159374 295.00034 62.05 293.9222ZM69.05 291.93784Q69.05 290.4066 69.3625 289.4847Q69.675 288.5472 70.28438 288.0472Q70.90938 287.5472 71.84688 287.5472Q72.53438 287.5472 73.05 287.82846Q73.58125 288.1097 73.925 288.64096Q74.26875 289.1566 74.45625 289.9066Q74.64375 290.6566 74.64375 291.93784Q74.64375 293.45346 74.33125 294.37534Q74.03438 295.2972 73.40938 295.81284Q72.8 296.31284 71.84688 296.31284Q70.6125 296.31284 69.89375 295.4222Q69.05 294.3597 69.05 291.93784ZM70.12813 291.93784Q70.12813 294.0472 70.62813 294.75034Q71.12813 295.45346 71.84688 295.45346Q72.58125 295.45346 73.06563 294.75034Q73.56563 294.0472 73.56563 291.93784Q73.56563 289.81284 73.06563 289.12534Q72.58125 288.4222 71.83125 288.4222Q71.1125 288.4222 70.675 289.0316Q70.12813 289.81284 70.12813 291.93784ZM76.05 291.93784Q76.05 290.4066 76.3625 289.4847Q76.675 288.5472 77.28438 288.0472Q77.90938 287.5472 78.84688 287.5472Q79.53438 287.5472 80.05 287.82846Q80.58125 288.1097 80.925 288.64096Q81.26875 289.1566 81.45625 289.9066Q81.64375 290.6566 81.64375 291.93784Q81.64375 293.45346 81.33125 294.37534Q81.03438 295.2972 80.40938 295.81284Q79.8 296.31284 78.84688 296.31284Q77.6125 296.31284 76.89375 295.4222Q76.05 294.3597 76.05 291.93784ZM77.12813 291.93784Q77.12813 294.0472 77.62813 294.75034Q78.12813 295.45346 78.84688 295.45346Q79.58125 295.45346 80.06563 294.75034Q80.56563 294.0472 80.56563 291.93784Q80.56563 289.81284 80.06563 289.12534Q79.58125 288.4222 78.83125 288.4222Q78.1125 288.4222 77.675 289.0316Q77.12813 289.81284 77.12813 291.93784Z" fill-rule="nonzero"/><path fill="#000000" d="M67.51875 270.2323L66.47188 270.31042Q66.33125 269.68542 66.08125 269.40417Q65.64375 268.95105 65.01875 268.95105Q64.51875 268.95105 64.12813 269.2323Q63.64375 269.6073 63.346874 270.31042Q63.065624 270.99792 63.05 272.27917Q63.425 271.70105 63.971874 271.4198Q64.53438 271.13855 65.14375 271.13855Q66.19063 271.13855 66.925 271.9198Q67.675 272.70105 67.675 273.9198Q67.675 274.7323 67.31563 275.43542Q66.97188 276.12292 66.3625 276.49792Q65.75313 276.8573 64.9875 276.8573Q63.659374 276.8573 62.83125 275.88855Q62.003124 274.9198 62.003124 272.70105Q62.003124 270.20105 62.925 269.07605Q63.721874 268.09167 65.08125 268.09167Q66.09688 268.09167 66.7375 268.6698Q67.39375 269.2323 67.51875 270.2323ZM63.221874 273.93542Q63.221874 274.4823 63.440624 274.9823Q63.675 275.46667 64.08125 275.7323Q64.50313 275.99792 64.97188 275.99792Q65.62813 275.99792 66.1125 275.46667Q66.59688 274.9198 66.59688 273.99792Q66.59688 273.1073 66.1125 272.59167Q65.64375 272.07605 64.925 272.07605Q64.20625 272.07605 63.70625 272.59167Q63.221874 273.1073 63.221874 273.93542ZM69.05 272.4823Q69.05 270.95105 69.3625 270.02917Q69.675 269.09167 70.28438 268.59167Q70.90938 268.09167 71.84688 268.09167Q72.53438 268.09167 73.05 268.37292Q73.58125 268.65417 73.925 269.18542Q74.26875 269.70105 74.45625 270.45105Q74.64375 271.20105 74.64375 272.4823Q74.64375 273.99792 74.33125 274.9198Q74.03438 275.84167 73.40938 276.3573Q72.8 276.8573 71.84688 276.8573Q70.6125 276.8573 69.89375 275.96667Q69.05 274.90417 69.05 272.4823ZM70.12813 272.4823Q70.12813 274.59167 70.62813 275.2948Q71.12813 275.99792 71.84688 275.99792Q72.58125 275.99792 73.06563 275.2948Q73.56563 274.59167 73.56563 272.4823Q73.56563 270.3573 73.06563 269.6698Q72.58125 268.96667 71.83125 268.96667Q71.1125 268.96667 70.675 269.57605Q70.12813 270.3573 70.12813 272.4823ZM76.05 272.4823Q76.05 270.95105 76.3625 270.02917Q76.675 269.09167 77.28438 268.59167Q77.90938 268.09167 78.84688 268.09167Q79.53438 268.09167 80.05 268.37292Q80.58125 268.65417 80.925 269.18542Q81.26875 269.70105 81.45625 270.45105Q81.64375 271.20105 81.64375 272.4823Q81.64375 273.99792 81.33125 274.9198Q81.03438 275.84167 80.40938 276.3573Q79.8 276.8573 78.84688 276.8573Q77.6125 276.8573 76.89375 275.96667Q76.05 274.90417 76.05 272.4823ZM77.12813 272.4823Q77.12813 274.59167 77.62813 275.2948Q78.12813 275.99792 78.84688 275.99792Q79.58125 275.99792 80.06563 275.2948Q80.56563 274.59167 80.56563 272.4823Q80.56563 270.3573 80.06563 269.6698Q79.58125 268.96667 78.83125 268.96667Q78.1125 268.96667 77.675 269.57605Q77.12813 270.3573 77.12813 272.4823Z" fill-rule="nonzero"/><path fill="#000000" d="M62.1125 249.79236L62.1125 248.77673L67.675 248.77673L67.675 249.60486Q66.8625 250.47986 66.05 251.93298Q65.25313 253.37048 64.81563 254.90173Q64.4875 255.97986 64.40938 257.2611L63.315624 257.2611Q63.33125 256.24548 63.70625 254.80798Q64.09688 253.37048 64.8 252.04236Q65.51875 250.71423 66.33125 249.79236L62.1125 249.79236ZM69.05 253.02673Q69.05 251.49548 69.3625 250.57361Q69.675 249.63611 70.28438 249.13611Q70.90938 248.63611 71.84688 248.63611Q72.53438 248.63611 73.05 248.91736Q73.58125 249.19861 73.925 249.72986Q74.26875 250.24548 74.45625 250.99548Q74.64375 251.74548 74.64375 253.02673Q74.64375 254.54236 74.33125 255.46423Q74.03438 256.3861 73.40938 256.90173Q72.8 257.40173 71.84688 257.40173Q70.6125 257.40173 69.89375 256.5111Q69.05 255.44861 69.05 253.02673ZM70.12813 253.02673Q70.12813 255.13611 70.62813 255.83923Q71.12813 256.54236 71.84688 256.54236Q72.58125 256.54236 73.06563 255.83923Q73.56563 255.13611 73.56563 253.02673Q73.56563 250.90173 73.06563 250.21423Q72.58125 249.51111 71.83125 249.51111Q71.1125 249.51111 70.675 250.12048Q70.12813 250.90173 70.12813 253.02673ZM76.05 253.02673Q76.05 251.49548 76.3625 250.57361Q76.675 249.63611 77.28438 249.13611Q77.90938 248.63611 78.84688 248.63611Q79.53438 248.63611 80.05 248.91736Q80.58125 249.19861 80.925 249.72986Q81.26875 250.24548 81.45625 250.99548Q81.64375 251.74548 81.64375 253.02673Q81.64375 254.54236 81.33125 255.46423Q81.03438 256.3861 80.40938 256.90173Q79.8 257.40173 78.84688 257.40173Q77.6125 257.40173 76.89375 256.5111Q76.05 255.44861 76.05 253.02673ZM77.12813 253.02673Q77.12813 255.13611 77.62813 255.83923Q78.12813 256.54236 78.84688 256.54236Q79.58125 256.54236 80.06563 255.83923Q80.56563 255.13611 80.56563 253.02673Q80.56563 250.90173 80.06563 250.21423Q79.58125 249.51111 78.83125 249.51111Q78.1125 249.51111 77.675 250.12048Q77.12813 250.90173 77.12813 253.02673Z" fill-rule="nonzero"/><path fill="#000000" d="M63.675 233.1493Q63.01875 232.8993 62.690624 232.4618Q62.378124 232.00868 62.378124 231.3993Q62.378124 230.4618 63.05 229.82118Q63.7375 229.18056 64.84688 229.18056Q65.97188 229.18056 66.65938 229.8368Q67.34688 230.49306 67.34688 231.43056Q67.34688 232.0243 67.03438 232.4618Q66.72188 232.8993 66.08125 233.1493Q66.87813 233.3993 67.28438 233.97743Q67.69063 234.55556 67.69063 235.35243Q67.69063 236.44618 66.90938 237.19618Q66.14375 237.94618 64.8625 237.94618Q63.596874 237.94618 62.815624 237.19618Q62.034374 236.44618 62.034374 235.32118Q62.034374 234.47743 62.45625 233.91493Q62.89375 233.35243 63.675 233.1493ZM63.45625 231.35243Q63.45625 231.9618 63.846874 232.35243Q64.25313 232.74306 64.87813 232.74306Q65.4875 232.74306 65.87813 232.36806Q66.26875 231.97743 66.26875 231.41493Q66.26875 230.8368 65.8625 230.44618Q65.45625 230.03993 64.8625 230.03993Q64.25313 230.03993 63.846874 230.43056Q63.45625 230.82118 63.45625 231.35243ZM63.128124 235.32118Q63.128124 235.7743 63.33125 236.19618Q63.55 236.61806 63.971874 236.85243Q64.39375 237.0868 64.87813 237.0868Q65.62813 237.0868 66.1125 236.60243Q66.6125 236.11806 66.6125 235.36806Q66.6125 234.60243 66.1125 234.10243Q65.6125 233.60243 64.84688 233.60243Q64.09688 233.60243 63.6125 234.10243Q63.128124 234.5868 63.128124 235.32118ZM69.05 233.57118Q69.05 232.03993 69.3625 231.11806Q69.675 230.18056 70.28438 229.68056Q70.90938 229.18056 71.84688 229.18056Q72.53438 229.18056 73.05 229.4618Q73.58125 229.74306 73.925 230.2743Q74.26875 230.78993 74.45625 231.53993Q74.64375 232.28993 74.64375 233.57118Q74.64375 235.0868 74.33125 236.00868Q74.03438 236.93056 73.40938 237.44618Q72.8 237.94618 71.84688 237.94618Q70.6125 237.94618 69.89375 237.05556Q69.05 235.99306 69.05 233.57118ZM70.12813 233.57118Q70.12813 235.68056 70.62813 236.38368Q71.12813 237.0868 71.84688 237.0868Q72.58125 237.0868 73.06563 236.38368Q73.56563 235.68056 73.56563 233.57118Q73.56563 231.44618 73.06563 230.75868Q72.58125 230.05556 71.83125 230.05556Q71.1125 230.05556 70.675 230.66493Q70.12813 231.44618 70.12813 233.57118ZM76.05 233.57118Q76.05 232.03993 76.3625 231.11806Q76.675 230.18056 77.28438 229.68056Q77.90938 229.18056 78.84688 229.18056Q79.53438 229.18056 80.05 229.4618Q80.58125 229.74306 80.925 230.2743Q81.26875 230.78993 81.45625 231.53993Q81.64375 232.28993 81.64375 233.57118Q81.64375 235.0868 81.33125 236.00868Q81.03438 236.93056 80.40938 237.44618Q79.8 237.94618 78.84688 237.94618Q77.6125 237.94618 76.89375 237.05556Q76.05 235.99306 76.05 233.57118ZM77.12813 233.57118Q77.12813 235.68056 77.62813 236.38368Q78.12813 237.0868 78.84688 237.0868Q79.58125 237.0868 80.06563 236.38368Q80.56563 235.68056 80.56563 233.57118Q80.56563 231.44618 80.06563 230.75868Q79.58125 230.05556 78.83125 230.05556Q78.1125 230.05556 77.675 230.66493Q77.12813 231.44618 77.12813 233.57118Z" fill-rule="nonzero"/><path fill="#000000" d="M62.20625 216.36563L63.221874 216.27188Q63.346874 216.99063 63.70625 217.31876Q64.08125 217.63126 64.64375 217.63126Q65.12813 217.63126 65.4875 217.4125Q65.8625 217.17813 66.09688 216.81876Q66.33125 216.44376 66.4875 215.81876Q66.64375 215.17813 66.64375 214.52188Q66.64375 214.44376 66.64375 214.30313Q66.33125 214.80313 65.78438 215.13126Q65.2375 215.44376 64.59688 215.44376Q63.51875 215.44376 62.784374 214.67813Q62.05 213.89688 62.05 212.63126Q62.05 211.31876 62.815624 210.52188Q63.596874 209.725 64.75313 209.725Q65.58125 209.725 66.26875 210.17813Q66.97188 210.63126 67.33125 211.475Q67.69063 212.30313 67.69063 213.88126Q67.69063 215.52188 67.33125 216.50626Q66.9875 217.475 66.26875 217.99063Q65.56563 218.49063 64.62813 218.49063Q63.6125 218.49063 62.971874 217.94376Q62.33125 217.38126 62.20625 216.36563ZM66.51875 212.56876Q66.51875 211.6625 66.03438 211.13126Q65.56563 210.6 64.87813 210.6Q64.175 210.6 63.64375 211.17813Q63.128124 211.74063 63.128124 212.6625Q63.128124 213.475 63.628124 213.99063Q64.12813 214.50626 64.84688 214.50626Q65.58125 214.50626 66.05 213.99063Q66.51875 213.475 66.51875 212.56876ZM69.05 214.11563Q69.05 212.58438 69.3625 211.6625Q69.675 210.725 70.28438 210.225Q70.90938 209.725 71.84688 209.725Q72.53438 209.725 73.05 210.00626Q73.58125 210.2875 73.925 210.81876Q74.26875 211.33438 74.45625 212.08438Q74.64375 212.83438 74.64375 214.11563Q74.64375 215.63126 74.33125 216.55313Q74.03438 217.475 73.40938 217.99063Q72.8 218.49063 71.84688 218.49063Q70.6125 218.49063 69.89375 217.6Q69.05 216.5375 69.05 214.11563ZM70.12813 214.11563Q70.12813 216.225 70.62813 216.92813Q71.12813 217.63126 71.84688 217.63126Q72.58125 217.63126 73.06563 216.92813Q73.56563 216.225 73.56563 214.11563Q73.56563 211.99063 73.06563 211.30313Q72.58125 210.6 71.83125 210.6Q71.1125 210.6 70.675 211.20938Q70.12813 211.99063 70.12813 214.11563ZM76.05 214.11563Q76.05 212.58438 76.3625 211.6625Q76.675 210.725 77.28438 210.225Q77.90938 209.725 78.84688 209.725Q79.53438 209.725 80.05 210.00626Q80.58125 210.2875 80.925 210.81876Q81.26875 211.33438 81.45625 212.08438Q81.64375 212.83438 81.64375 214.11563Q81.64375 215.63126 81.33125 216.55313Q81.03438 217.475 80.40938 217.99063Q79.8 218.49063 78.84688 218.49063Q77.6125 218.49063 76.89375 217.6Q76.05 216.5375 76.05 214.11563ZM77.12813 214.11563Q77.12813 216.225 77.62813 216.92813Q78.12813 217.63126 78.84688 217.63126Q79.58125 217.63126 80.06563 216.92813Q80.56563 216.225 80.56563 214.11563Q80.56563 211.99063 80.06563 211.30313Q79.58125 210.6 78.83125 210.6Q78.1125 210.6 77.675 211.20938Q77.12813 211.99063 77.12813 214.11563Z" fill-rule="nonzero"/><path fill="#000000" d="M59.01875 198.89444L57.971874 198.89444L57.971874 192.17569Q57.58125 192.53506 56.95625 192.91006Q56.346874 193.26944 55.8625 193.44131L55.8625 192.42569Q56.7375 192.00381 57.39375 191.42569Q58.065624 190.83194 58.346874 190.26944L59.01875 190.26944L59.01875 198.89444ZM62.05 194.66006Q62.05 193.12881 62.3625 192.20694Q62.675 191.26944 63.284374 190.76944Q63.909374 190.26944 64.84688 190.26944Q65.53438 190.26944 66.05 190.55069Q66.58125 190.83194 66.925 191.36319Q67.26875 191.87881 67.45625 192.62881Q67.64375 193.37881 67.64375 194.66006Q67.64375 196.17569 67.33125 197.09756Q67.03438 198.01944 66.40938 198.53506Q65.8 199.03506 64.84688 199.03506Q63.6125 199.03506 62.89375 198.14444Q62.05 197.08194 62.05 194.66006ZM63.128124 194.66006Q63.128124 196.76944 63.628124 197.47256Q64.12813 198.17569 64.84688 198.17569Q65.58125 198.17569 66.06563 197.47256Q66.56563 196.76944 66.56563 194.66006Q66.56563 192.53506 66.06563 191.84756Q65.58125 191.14444 64.83125 191.14444Q64.1125 191.14444 63.675 191.75381Q63.128124 192.53506 63.128124 194.66006ZM69.05 194.66006Q69.05 193.12881 69.3625 192.20694Q69.675 191.26944 70.28438 190.76944Q70.90938 190.26944 71.84688 190.26944Q72.53438 190.26944 73.05 190.55069Q73.58125 190.83194 73.925 191.36319Q74.26875 191.87881 74.45625 192.62881Q74.64375 193.37881 74.64375 194.66006Q74.64375 196.17569 74.33125 197.09756Q74.03438 198.01944 73.40938 198.53506Q72.8 199.03506 71.84688 199.03506Q70.6125 199.03506 69.89375 198.14444Q69.05 197.08194 69.05 194.66006ZM70.12813 194.66006Q70.12813 196.76944 70.62813 197.47256Q71.12813 198.17569 71.84688 198.17569Q72.58125 198.17569 73.06563 197.47256Q73.56563 196.76944 73.56563 194.66006Q73.56563 192.53506 73.06563 191.84756Q72.58125 191.14444 71.83125 191.14444Q71.1125 191.14444 70.675 191.75381Q70.12813 192.53506 70.12813 194.66006ZM76.05 194.66006Q76.05 193.12881 76.3625 192.20694Q76.675 191.26944 77.28438 190.76944Q77.90938 190.26944 78.84688 190.26944Q79.53438 190.26944 80.05 190.55069Q80.58125 190.83194 80.925 191.36319Q81.26875 191.87881 81.45625 192.62881Q81.64375 193.37881 81.64375 194.66006Q81.64375 196.17569 81.33125 197.09756Q81.03438 198.01944 80.40938 198.53506Q79.8 199.03506 78.84688 199.03506Q77.6125 199.03506 76.89375 198.14444Q76.05 197.08194 76.05 194.66006ZM77.12813 194.66006Q77.12813 196.76944 77.62813 197.47256Q78.12813 198.17569 78.84688 198.17569Q79.58125 198.17569 80.06563 197.47256Q80.56563 196.76944 80.56563 194.66006Q80.56563 192.53506 80.06563 191.84756Q79.58125 191.14444 78.83125 191.14444Q78.1125 191.14444 77.675 191.75381Q77.12813 192.53506 77.12813 194.66006Z" fill-rule="nonzero"/><path fill="#000000" d="M59.01875 179.43889L57.971874 179.43889L57.971874 172.72014Q57.58125 173.07951 56.95625 173.45451Q56.346874 173.81389 55.8625 173.98576L55.8625 172.97014Q56.7375 172.54826 57.39375 171.97014Q58.065624 171.37639 58.346874 170.81389L59.01875 170.81389L59.01875 179.43889ZM66.01875 179.43889L64.97188 179.43889L64.97188 172.72014Q64.58125 173.07951 63.95625 173.45451Q63.346874 173.81389 62.8625 173.98576L62.8625 172.97014Q63.7375 172.54826 64.39375 171.97014Q65.06563 171.37639 65.34688 170.81389L66.01875 170.81389L66.01875 179.43889ZM69.05 175.20451Q69.05 173.67326 69.3625 172.75139Q69.675 171.81389 70.28438 171.31389Q70.90938 170.81389 71.84688 170.81389Q72.53438 170.81389 73.05 171.09514Q73.58125 171.37639 73.925 171.90764Q74.26875 172.42326 74.45625 173.17326Q74.64375 173.92326 74.64375 175.20451Q74.64375 176.72014 74.33125 177.64201Q74.03438 178.56389 73.40938 179.07951Q72.8 179.57951 71.84688 179.57951Q70.6125 179.57951 69.89375 178.68889Q69.05 177.62639 69.05 175.20451ZM70.12813 175.20451Q70.12813 177.31389 70.62813 178.01701Q71.12813 178.72014 71.84688 178.72014Q72.58125 178.72014 73.06563 178.01701Q73.56563 177.31389 73.56563 175.20451Q73.56563 173.07951 73.06563 172.39201Q72.58125 171.68889 71.83125 171.68889Q71.1125 171.68889 70.675 172.29826Q70.12813 173.07951 70.12813 175.20451ZM76.05 175.20451Q76.05 173.67326 76.3625 172.75139Q76.675 171.81389 77.28438 171.31389Q77.90938 170.81389 78.84688 170.81389Q79.53438 170.81389 80.05 171.09514Q80.58125 171.37639 80.925 171.90764Q81.26875 172.42326 81.45625 173.17326Q81.64375 173.92326 81.64375 175.20451Q81.64375 176.72014 81.33125 177.64201Q81.03438 178.56389 80.40938 179.07951Q79.8 179.57951 78.84688 179.57951Q77.6125 179.57951 76.89375 178.68889Q76.05 177.62639 76.05 175.20451ZM77.12813 175.20451Q77.12813 177.31389 77.62813 178.01701Q78.12813 178.72014 78.84688 178.72014Q79.58125 178.72014 80.06563 178.01701Q80.56563 177.31389 80.56563 175.20451Q80.56563 173.07951 80.06563 172.39201Q79.58125 171.68889 78.83125 171.68889Q78.1125 171.68889 77.675 172.29826Q77.12813 173.07951 77.12813 175.20451Z" fill-rule="nonzero"/><path fill="#000000" d="M59.01875 159.98334L57.971874 159.98334L57.971874 153.26459Q57.58125 153.62396 56.95625 153.99896Q56.346874 154.35834 55.8625 154.53021L55.8625 153.51459Q56.7375 153.09271 57.39375 152.51459Q58.065624 151.92084 58.346874 151.35834L59.01875 151.35834L59.01875 159.98334ZM67.59688 158.96771L67.59688 159.98334L61.909374 159.98334Q61.909374 159.60834 62.034374 159.24896Q62.253124 158.67084 62.721874 158.10834Q63.20625 157.54584 64.1125 156.81146Q65.51875 155.65521 66.00313 154.98334Q66.50313 154.31146 66.50313 153.71771Q66.50313 153.09271 66.05 152.67084Q65.59688 152.23334 64.87813 152.23334Q64.1125 152.23334 63.659374 152.68646Q63.20625 153.13959 63.190624 153.95209L62.1125 153.84271Q62.221874 152.62396 62.940624 151.99896Q63.675 151.35834 64.90938 151.35834Q66.14375 151.35834 66.8625 152.04584Q67.58125 152.73334 67.58125 153.74896Q67.58125 154.26459 67.3625 154.76459Q67.15938 155.24896 66.65938 155.81146Q66.175 156.35834 65.05 157.31146Q64.09688 158.10834 63.815624 158.40521Q63.55 158.68646 63.378124 158.96771L67.59688 158.96771ZM69.05 155.74896Q69.05 154.21771 69.3625 153.29584Q69.675 152.35834 70.28438 151.85834Q70.90938 151.35834 71.84688 151.35834Q72.53438 151.35834 73.05 151.63959Q73.58125 151.92084 73.925 152.45209Q74.26875 152.96771 74.45625 153.71771Q74.64375 154.46771 74.64375 155.74896Q74.64375 157.26459 74.33125 158.18646Q74.03438 159.10834 73.40938 159.62396Q72.8 160.12396 71.84688 160.12396Q70.6125 160.12396 69.89375 159.23334Q69.05 158.17084 69.05 155.74896ZM70.12813 155.74896Q70.12813 157.85834 70.62813 158.56146Q71.12813 159.26459 71.84688 159.26459Q72.58125 159.26459 73.06563 158.56146Q73.56563 157.85834 73.56563 155.74896Q73.56563 153.62396 73.06563 152.93646Q72.58125 152.23334 71.83125 152.23334Q71.1125 152.23334 70.675 152.84271Q70.12813 153.62396 70.12813 155.74896ZM76.05 155.74896Q76.05 154.21771 76.3625 153.29584Q76.675 152.35834 77.28438 151.85834Q77.90938 151.35834 78.84688 151.35834Q79.53438 151.35834 80.05 151.63959Q80.58125 151.92084 80.925 152.45209Q81.26875 152.96771 81.45625 153.71771Q81.64375 154.46771 81.64375 155.74896Q81.64375 157.26459 81.33125 158.18646Q81.03438 159.10834 80.40938 159.62396Q79.8 160.12396 78.84688 160.12396Q77.6125 160.12396 76.89375 159.23334Q76.05 158.17084 76.05 155.74896ZM77.12813 155.74896Q77.12813 157.85834 77.62813 158.56146Q78.12813 159.26459 78.84688 159.26459Q79.58125 159.26459 80.06563 158.56146Q80.56563 157.85834 80.56563 155.74896Q80.56563 153.62396 80.06563 152.93646Q79.58125 152.23334 78.83125 152.23334Q78.1125 152.23334 77.675 152.84271Q77.12813 153.62396 77.12813 155.74896Z" fill-rule="nonzero"/><path fill="#000000" d="M59.01875 140.52777L57.971874 140.52777L57.971874 133.80902Q57.58125 134.1684 56.95625 134.5434Q56.346874 134.90277 55.8625 135.07465L55.8625 134.05902Q56.7375 133.63715 57.39375 133.05902Q58.065624 132.46527 58.346874 131.90277L59.01875 131.90277L59.01875 140.52777ZM62.05 138.26215L63.1125 138.12152Q63.284374 139.01215 63.721874 139.4184Q64.15938 139.80902 64.78438 139.80902Q65.53438 139.80902 66.05 139.2934Q66.56563 138.77777 66.56563 138.01215Q66.56563 137.2934 66.08125 136.82465Q65.6125 136.34027 64.87813 136.34027Q64.58125 136.34027 64.12813 136.46527L64.25313 135.52777Q64.3625 135.5434 64.425 135.5434Q65.09688 135.5434 65.62813 135.19965Q66.175 134.84027 66.175 134.1059Q66.175 133.52777 65.78438 133.15277Q65.39375 132.76215 64.76875 132.76215Q64.15938 132.76215 63.7375 133.15277Q63.33125 133.5434 63.221874 134.30902L62.159374 134.12152Q62.346874 133.07465 63.034374 132.49652Q63.721874 131.90277 64.7375 131.90277Q65.44063 131.90277 66.03438 132.21527Q66.62813 132.51215 66.94063 133.02777Q67.25313 133.5434 67.25313 134.13715Q67.25313 134.68402 66.95625 135.15277Q66.65938 135.6059 66.08125 135.87152Q66.83125 136.0434 67.25313 136.6059Q67.675 137.15277 67.675 137.99652Q67.675 139.12152 66.84688 139.90277Q66.03438 140.68402 64.78438 140.68402Q63.659374 140.68402 62.909374 140.01215Q62.159374 139.32465 62.05 138.26215ZM69.05 136.2934Q69.05 134.76215 69.3625 133.84027Q69.675 132.90277 70.28438 132.40277Q70.90938 131.90277 71.84688 131.90277Q72.53438 131.90277 73.05 132.18402Q73.58125 132.46527 73.925 132.99652Q74.26875 133.51215 74.45625 134.26215Q74.64375 135.01215 74.64375 136.2934Q74.64375 137.80902 74.33125 138.7309Q74.03438 139.65277 73.40938 140.1684Q72.8 140.6684 71.84688 140.6684Q70.6125 140.6684 69.89375 139.77777Q69.05 138.71527 69.05 136.2934ZM70.12813 136.2934Q70.12813 138.40277 70.62813 139.1059Q71.12813 139.80902 71.84688 139.80902Q72.58125 139.80902 73.06563 139.1059Q73.56563 138.40277 73.56563 136.2934Q73.56563 134.1684 73.06563 133.4809Q72.58125 132.77777 71.83125 132.77777Q71.1125 132.77777 70.675 133.38715Q70.12813 134.1684 70.12813 136.2934ZM76.05 136.2934Q76.05 134.76215 76.3625 133.84027Q76.675 132.90277 77.28438 132.40277Q77.90938 131.90277 78.84688 131.90277Q79.53438 131.90277 80.05 132.18402Q80.58125 132.46527 80.925 132.99652Q81.26875 133.51215 81.45625 134.26215Q81.64375 135.01215 81.64375 136.2934Q81.64375 137.80902 81.33125 138.7309Q81.03438 139.65277 80.40938 140.1684Q79.8 140.6684 78.84688 140.6684Q77.6125 140.6684 76.89375 139.77777Q76.05 138.71527 76.05 136.2934ZM77.12813 136.2934Q77.12813 138.40277 77.62813 139.1059Q78.12813 139.80902 78.84688 139.80902Q79.58125 139.80902 80.06563 139.1059Q80.56563 138.40277 80.56563 136.2934Q80.56563 134.1684 80.06563 133.4809Q79.58125 132.77777 78.83125 132.77777Q78.1125 132.77777 77.675 133.38715Q77.12813 134.1684 77.12813 136.2934Z" fill-rule="nonzero"/><path fill="#000000" d="M59.01875 121.07222L57.971874 121.07222L57.971874 114.35347Q57.58125 114.712845 56.95625 115.087845Q56.346874 115.44722 55.8625 115.619095L55.8625 114.60347Q56.7375 114.181595 57.39375 113.60347Q58.065624 113.00972 58.346874 112.44722L59.01875 112.44722L59.01875 121.07222ZM65.425 121.07222L65.425 119.00972L61.70625 119.00972L61.70625 118.04097L65.62813 112.47847L66.4875 112.47847L66.4875 118.04097L67.64375 118.04097L67.64375 119.00972L66.4875 119.00972L66.4875 121.07222L65.425 121.07222ZM65.425 118.04097L65.425 114.181595L62.7375 118.04097L65.425 118.04097ZM69.05 116.837845Q69.05 115.306595 69.3625 114.38472Q69.675 113.44722 70.28438 112.94722Q70.90938 112.44722 71.84688 112.44722Q72.53438 112.44722 73.05 112.72847Q73.58125 113.00972 73.925 113.54097Q74.26875 114.056595 74.45625 114.806595Q74.64375 115.556595 74.64375 116.837845Q74.64375 118.35347 74.33125 119.275345Q74.03438 120.19722 73.40938 120.712845Q72.8 121.212845 71.84688 121.212845Q70.6125 121.212845 69.89375 120.32222Q69.05 119.25972 69.05 116.837845ZM70.12813 116.837845Q70.12813 118.94722 70.62813 119.650345Q71.12813 120.35347 71.84688 120.35347Q72.58125 120.35347 73.06563 119.650345Q73.56563 118.94722 73.56563 116.837845Q73.56563 114.712845 73.06563 114.025345Q72.58125 113.32222 71.83125 113.32222Q71.1125 113.32222 70.675 113.931595Q70.12813 114.712845 70.12813 116.837845ZM76.05 116.837845Q76.05 115.306595 76.3625 114.38472Q76.675 113.44722 77.28438 112.94722Q77.90938 112.44722 78.84688 112.44722Q79.53438 112.44722 80.05 112.72847Q80.58125 113.00972 80.925 113.54097Q81.26875 114.056595 81.45625 114.806595Q81.64375 115.556595 81.64375 116.837845Q81.64375 118.35347 81.33125 119.275345Q81.03438 120.19722 80.40938 120.712845Q79.8 121.212845 78.84688 121.212845Q77.6125 121.212845 76.89375 120.32222Q76.05 119.25972 76.05 116.837845ZM77.12813 116.837845Q77.12813 118.94722 77.62813 119.650345Q78.12813 120.35347 78.84688 120.35347Q79.58125 120.35347 80.06563 119.650345Q80.56563 118.94722 80.56563 116.837845Q80.56563 114.712845 80.06563 114.025345Q79.58125 113.32222 78.83125 113.32222Q78.1125 113.32222 77.675 113.931595Q77.12813 114.712845 77.12813 116.837845Z" fill-rule="nonzero"/><path fill="#000000" d="M59.01875 101.61667L57.971874 101.61667L57.971874 94.89792Q57.58125 95.25729 56.95625 95.63229Q56.346874 95.99167 55.8625 96.16354L55.8625 95.14792Q56.7375 94.72604 57.39375 94.14792Q58.065624 93.55417 58.346874 92.99167L59.01875 92.99167L59.01875 101.61667ZM62.05 99.36667L63.159374 99.27292Q63.284374 100.08542 63.721874 100.49167Q64.175 100.89792 64.81563 100.89792Q65.56563 100.89792 66.09688 100.31979Q66.62813 99.74167 66.62813 98.80417Q66.62813 97.89792 66.1125 97.38229Q65.6125 96.85104 64.78438 96.85104Q64.28438 96.85104 63.8625 97.08542Q63.45625 97.31979 63.221874 97.67917L62.2375 97.55417L63.065624 93.14792L67.34688 93.14792L67.34688 94.14792L63.909374 94.14792L63.45625 96.46042Q64.22188 95.91354 65.06563 95.91354Q66.19063 95.91354 66.95625 96.69479Q67.7375 97.47604 67.7375 98.71042Q67.7375 99.86667 67.06563 100.72604Q66.2375 101.75729 64.81563 101.75729Q63.64375 101.75729 62.89375 101.10104Q62.159374 100.44479 62.05 99.36667ZM69.05 97.38229Q69.05 95.85104 69.3625 94.92917Q69.675 93.99167 70.28438 93.49167Q70.90938 92.99167 71.84688 92.99167Q72.53438 92.99167 73.05 93.27292Q73.58125 93.55417 73.925 94.08542Q74.26875 94.60104 74.45625 95.35104Q74.64375 96.10104 74.64375 97.38229Q74.64375 98.89792 74.33125 99.81979Q74.03438 100.74167 73.40938 101.25729Q72.8 101.75729 71.84688 101.75729Q70.6125 101.75729 69.89375 100.86667Q69.05 99.80417 69.05 97.38229ZM70.12813 97.38229Q70.12813 99.49167 70.62813 100.19479Q71.12813 100.89792 71.84688 100.89792Q72.58125 100.89792 73.06563 100.19479Q73.56563 99.49167 73.56563 97.38229Q73.56563 95.25729 73.06563 94.56979Q72.58125 93.86667 71.83125 93.86667Q71.1125 93.86667 70.675 94.47604Q70.12813 95.25729 70.12813 97.38229ZM76.05 97.38229Q76.05 95.85104 76.3625 94.92917Q76.675 93.99167 77.28438 93.49167Q77.90938 92.99167 78.84688 92.99167Q79.53438 92.99167 80.05 93.27292Q80.58125 93.55417 80.925 94.08542Q81.26875 94.60104 81.45625 95.35104Q81.64375 96.10104 81.64375 97.38229Q81.64375 98.89792 81.33125 99.81979Q81.03438 100.74167 80.40938 101.25729Q79.8 101.75729 78.84688 101.75729Q77.6125 101.75729 76.89375 100.86667Q76.05 99.80417 76.05 97.38229ZM77.12813 97.38229Q77.12813 99.49167 77.62813 100.19479Q78.12813 100.89792 78.84688 100.89792Q79.58125 100.89792 80.06563 100.19479Q80.56563 99.49167 80.56563 97.38229Q80.56563 95.25729 80.06563 94.56979Q79.58125 93.86667 78.83125 93.86667Q78.1125 93.86667 77.675 94.47604Q77.12813 95.25729 77.12813 97.38229Z" fill-rule="nonzero"/><path stroke="#4285f4" stroke-width="4.0" stroke-linecap="butt" d="M289.5 68.583336L301.5 68.583336" fill-rule="nonzero"/><path fill="#1a1a1a" d="M311.26562 72.583336L310.28125 72.583336L310.28125 63.989586L311.34375 63.989586L311.34375 67.052086Q312.01562 66.22396 313.04688 66.22396Q313.625 66.22396 314.125 66.458336Q314.64062 66.677086 314.96875 67.09896Q315.3125 67.520836 315.5 68.114586Q315.6875 68.708336 315.6875 69.38021Q315.6875 70.97396 314.89062 71.84896Q314.09375 72.72396 313.0 72.72396Q311.89062 72.72396 311.26562 71.802086L311.26562 72.583336ZM311.25 69.427086Q311.25 70.53646 311.5625 71.03646Q312.0625 71.84896 312.90625 71.84896Q313.59375 71.84896 314.09375 71.25521Q314.60938 70.66146 314.60938 69.458336Q314.60938 68.239586 314.125 67.66146Q313.64062 67.083336 312.95312 67.083336Q312.26562 67.083336 311.75 67.69271Q311.25 68.28646 311.25 69.427086ZM321.35938 71.81771Q320.76562 72.31771 320.21875 72.520836Q319.6875 72.72396 319.0625 72.72396Q318.03125 72.72396 317.48438 72.22396Q316.9375 71.72396 316.9375 70.94271Q316.9375 70.489586 317.14062 70.114586Q317.34375 69.72396 317.6875 69.50521Q318.03125 69.270836 318.45312 69.16146Q318.75 69.06771 319.39062 68.989586Q320.65625 68.84896 321.26562 68.63021Q321.26562 68.41146 321.26562 68.364586Q321.26562 67.708336 320.96875 67.44271Q320.5625 67.09896 319.76562 67.09896Q319.03125 67.09896 318.67188 67.364586Q318.3125 67.614586 318.14062 68.270836L317.10938 68.13021Q317.25 67.47396 317.57812 67.06771Q317.90625 66.66146 318.51562 66.44271Q319.125 66.22396 319.92188 66.22396Q320.71875 66.22396 321.21875 66.41146Q321.71875 66.59896 321.95312 66.88021Q322.1875 67.16146 322.28125 67.59896Q322.32812 67.864586 322.32812 68.56771L322.32812 69.97396Q322.32812 71.44271 322.39062 71.833336Q322.46875 72.22396 322.67188 72.583336L321.5625 72.583336Q321.40625 72.25521 321.35938 71.81771ZM321.26562 69.458336Q320.6875 69.69271 319.54688 69.864586Q318.89062 69.958336 318.625 70.083336Q318.35938 70.19271 318.20312 70.41146Q318.0625 70.63021 318.0625 70.91146Q318.0625 71.333336 318.375 71.614586Q318.70312 71.895836 319.3125 71.895836Q319.92188 71.895836 320.39062 71.63021Q320.875 71.364586 321.09375 70.895836Q321.26562 70.53646 321.26562 69.84896L321.26562 69.458336ZM323.875 70.72396L324.90625 70.56771Q325.0 71.19271 325.39062 71.520836Q325.79688 71.84896 326.53125 71.84896Q327.25 71.84896 327.59375 71.56771Q327.95312 71.270836 327.95312 70.864586Q327.95312 70.50521 327.64062 70.302086Q327.42188 70.16146 326.5625 69.94271Q325.40625 69.645836 324.95312 69.44271Q324.51562 69.22396 324.28125 68.84896Q324.04688 68.47396 324.04688 68.00521Q324.04688 67.59896 324.23438 67.239586Q324.42188 66.88021 324.75 66.645836Q325.0 66.47396 325.42188 66.34896Q325.84375 66.22396 326.34375 66.22396Q327.0625 66.22396 327.60938 66.44271Q328.17188 66.645836 328.4375 67.00521Q328.70312 67.364586 328.79688 67.958336L327.76562 68.09896Q327.70312 67.63021 327.35938 67.364586Q327.03125 67.083336 326.40625 67.083336Q325.6875 67.083336 325.375 67.333336Q325.0625 67.56771 325.0625 67.895836Q325.0625 68.09896 325.1875 68.25521Q325.32812 68.427086 325.59375 68.53646Q325.75 68.59896 326.53125 68.802086Q327.65625 69.114586 328.09375 69.302086Q328.53125 69.489586 328.78125 69.84896Q329.03125 70.208336 329.03125 70.75521Q329.03125 71.28646 328.71875 71.75521Q328.42188 72.208336 327.84375 72.47396Q327.26562 72.72396 326.53125 72.72396Q325.3125 72.72396 324.67188 72.22396Q324.04688 71.708336 323.875 70.72396ZM335.54688 70.583336L336.64062 70.708336Q336.39062 71.66146 335.6875 72.19271Q334.98438 72.72396 333.90625 72.72396Q332.54688 72.72396 331.73438 71.88021Q330.9375 71.03646 330.9375 69.520836Q330.9375 67.958336 331.75 67.09896Q332.5625 66.22396 333.84375 66.22396Q335.09375 66.22396 335.875 67.06771Q336.67188 67.91146 336.67188 69.458336Q336.67188 69.552086 336.67188 69.739586L332.03125 69.739586Q332.09375 70.770836 332.60938 71.31771Q333.125 71.84896 333.90625 71.84896Q334.48438 71.84896 334.89062 71.552086Q335.3125 71.239586 335.54688 70.583336ZM332.09375 68.88021L335.5625 68.88021Q335.5 68.083336 335.17188 67.69271Q334.65625 67.083336 333.85938 67.083336Q333.125 67.083336 332.625 67.56771Q332.14062 68.052086 332.09375 68.88021ZM338.26562 72.583336L338.26562 63.989586L339.32812 63.989586L339.32812 72.583336L338.26562 72.583336ZM341.29688 65.208336L341.29688 63.989586L342.35938 63.989586L342.35938 65.208336L341.29688 65.208336ZM341.29688 72.583336L341.29688 66.364586L342.35938 66.364586L342.35938 72.583336L341.29688 72.583336ZM344.29688 72.583336L344.29688 66.364586L345.23438 66.364586L345.23438 67.239586Q345.92188 66.22396 347.21875 66.22396Q347.78125 66.22396 348.25 66.427086Q348.73438 66.63021 348.96875 66.958336Q349.20312 67.28646 349.29688 67.72396Q349.34375 68.020836 349.34375 68.75521L349.34375 72.583336L348.29688 72.583336L348.29688 68.802086Q348.29688 68.145836 348.17188 67.833336Q348.04688 67.520836 347.73438 67.333336Q347.42188 67.13021 347.0 67.13021Q346.32812 67.13021 345.82812 67.56771Q345.34375 67.989586 345.34375 69.177086L345.34375 72.583336L344.29688 72.583336ZM355.54688 70.583336L356.64062 70.708336Q356.39062 71.66146 355.6875 72.19271Q354.98438 72.72396 353.90625 72.72396Q352.54688 72.72396 351.73438 71.88021Q350.9375 71.03646 350.9375 69.520836Q350.9375 67.958336 351.75 67.09896Q352.5625 66.22396 353.84375 66.22396Q355.09375 66.22396 355.875 67.06771Q356.67188 67.91146 356.67188 69.458336Q356.67188 69.552086 356.67188 69.739586L352.03125 69.739586Q352.09375 70.770836 352.60938 71.31771Q353.125 71.84896 353.90625 71.84896Q354.48438 71.84896 354.89062 71.552086Q355.3125 71.239586 355.54688 70.583336ZM352.09375 68.88021L355.5625 68.88021Q355.5 68.083336 355.17188 67.69271Q354.65625 67.083336 353.85938 67.083336Q353.125 67.083336 352.625 67.56771Q352.14062 68.052086 352.09375 68.88021Z" fill-rule="nonzero"/><path stroke="#ea4335" stroke-width="4.0" stroke-linecap="butt" d="M373.5 68.583336L385.5 68.583336" fill-rule="nonzero"/><path fill="#1a1a1a" d="M394.29688 74.97396L394.29688 66.364586L395.25 66.364586L395.25 67.16146Q395.59375 66.69271 396.01562 66.458336Q396.45312 66.22396 397.0625 66.22396Q397.85938 66.22396 398.46875 66.63021Q399.07812 67.03646 399.375 67.78646Q399.6875 68.53646 399.6875 69.427086Q399.6875 70.38021 399.34375 71.145836Q399.01562 71.91146 398.35938 72.31771Q397.70312 72.72396 396.98438 72.72396Q396.45312 72.72396 396.03125 72.50521Q395.60938 72.270836 395.34375 71.94271L395.34375 74.97396L394.29688 74.97396ZM395.25 69.50521Q395.25 70.708336 395.73438 71.28646Q396.21875 71.84896 396.90625 71.84896Q397.60938 71.84896 398.10938 71.25521Q398.60938 70.66146 398.60938 69.41146Q398.60938 68.22396 398.125 67.645836Q397.64062 67.052086 396.95312 67.052086Q396.28125 67.052086 395.76562 67.677086Q395.25 68.302086 395.25 69.50521ZM401.28125 72.583336L401.28125 66.364586L402.23438 66.364586L402.23438 67.302086Q402.59375 66.645836 402.89062 66.44271Q403.20312 66.22396 403.57812 66.22396Q404.10938 66.22396 404.65625 66.552086L404.29688 67.53646Q403.90625 67.302086 403.53125 67.302086Q403.17188 67.302086 402.89062 67.520836Q402.625 67.72396 402.51562 68.09896Q402.32812 68.66146 402.32812 69.31771L402.32812 72.583336L401.28125 72.583336ZM409.54688 70.583336L410.64062 70.708336Q410.39062 71.66146 409.6875 72.19271Q408.98438 72.72396 407.90625 72.72396Q406.54688 72.72396 405.73438 71.88021Q404.9375 71.03646 404.9375 69.520836Q404.9375 67.958336 405.75 67.09896Q406.5625 66.22396 407.84375 66.22396Q409.09375 66.22396 409.875 67.06771Q410.67188 67.91146 410.67188 69.458336Q410.67188 69.552086 410.67188 69.739586L406.03125 69.739586Q406.09375 70.770836 406.60938 71.31771Q407.125 71.84896 407.90625 71.84896Q408.48438 71.84896 408.89062 71.552086Q409.3125 71.239586 409.54688 70.583336ZM406.09375 68.88021L409.5625 68.88021Q409.5 68.083336 409.17188 67.69271Q408.65625 67.083336 407.85938 67.083336Q407.125 67.083336 406.625 67.56771Q406.14062 68.052086 406.09375 68.88021ZM412.29688 72.583336L412.29688 66.364586L413.23438 66.364586L413.23438 67.239586Q413.53125 66.770836 414.01562 66.50521Q414.5 66.22396 415.125 66.22396Q415.8125 66.22396 416.25 66.50521Q416.70312 66.78646 416.875 67.302086Q417.625 66.22396 418.79688 66.22396Q419.73438 66.22396 420.21875 66.739586Q420.71875 67.239586 420.71875 68.31771L420.71875 72.583336L419.67188 72.583336L419.67188 68.66146Q419.67188 68.03646 419.5625 67.75521Q419.46875 67.47396 419.20312 67.302086Q418.9375 67.13021 418.5625 67.13021Q417.90625 67.13021 417.46875 67.56771Q417.04688 68.00521 417.04688 68.97396L417.04688 72.583336L415.98438 72.583336L415.98438 68.53646Q415.98438 67.833336 415.71875 67.489586Q415.46875 67.13021 414.89062 67.13021Q414.4375 67.13021 414.0625 67.364586Q413.6875 67.59896 413.51562 68.052086Q413.34375 68.50521 413.34375 69.34896L413.34375 72.583336L412.29688 72.583336ZM427.35938 71.81771Q426.76562 72.31771 426.21875 72.520836Q425.6875 72.72396 425.0625 72.72396Q424.03125 72.72396 423.48438 72.22396Q422.9375 71.72396 422.9375 70.94271Q422.9375 70.489586 423.14062 70.114586Q423.34375 69.72396 423.6875 69.50521Q424.03125 69.270836 424.45312 69.16146Q424.75 69.06771 425.39062 68.989586Q426.65625 68.84896 427.26562 68.63021Q427.26562 68.41146 427.26562 68.364586Q427.26562 67.708336 426.96875 67.44271Q426.5625 67.09896 425.76562 67.09896Q425.03125 67.09896 424.67188 67.364586Q424.3125 67.614586 424.14062 68.270836L423.10938 68.13021Q423.25 67.47396 423.57812 67.06771Q423.90625 66.66146 424.51562 66.44271Q425.125 66.22396 425.92188 66.22396Q426.71875 66.22396 427.21875 66.41146Q427.71875 66.59896 427.95312 66.88021Q428.1875 67.16146 428.28125 67.59896Q428.32812 67.864586 428.32812 68.56771L428.32812 69.97396Q428.32812 71.44271 428.39062 71.833336Q428.46875 72.22396 428.67188 72.583336L427.5625 72.583336Q427.40625 72.25521 427.35938 71.81771ZM427.26562 69.458336Q426.6875 69.69271 425.54688 69.864586Q424.89062 69.958336 424.625 70.083336Q424.35938 70.19271 424.20312 70.41146Q424.0625 70.63021 424.0625 70.91146Q424.0625 71.333336 424.375 71.614586Q424.70312 71.895836 425.3125 71.895836Q425.92188 71.895836 426.39062 71.63021Q426.875 71.364586 427.09375 70.895836Q427.26562 70.53646 427.26562 69.84896L427.26562 69.458336ZM430.29688 65.208336L430.29688 63.989586L431.35938 63.989586L431.35938 65.208336L430.29688 65.208336ZM430.29688 72.583336L430.29688 66.364586L431.35938 66.364586L431.35938 72.583336L430.29688 72.583336ZM433.29688 72.583336L433.29688 66.364586L434.23438 66.364586L434.23438 67.239586Q434.92188 66.22396 436.21875 66.22396Q436.78125 66.22396 437.25 66.427086Q437.73438 66.63021 437.96875 66.958336Q438.20312 67.28646 438.29688 67.72396Q438.34375 68.020836 438.34375 68.75521L438.34375 72.583336L437.29688 72.583336L437.29688 68.802086Q437.29688 68.145836 437.17188 67.833336Q437.04688 67.520836 436.73438 67.333336Q436.42188 67.13021 436.0 67.13021Q435.32812 67.13021 434.82812 67.56771Q434.34375 67.989586 434.34375 69.177086L434.34375 72.583336L433.29688 72.583336Z" fill-rule="nonzero"/><path fill="#757575" d="M27.70625 39.971874L27.95625 41.534374Q27.221874 41.690624 26.628124 41.690624Q25.675 41.690624 25.14375 41.39375Q24.628124 41.08125 24.409374 40.596874Q24.190624 40.096874 24.190624 38.51875L24.190624 32.55L22.909374 32.55L22.909374 31.175L24.190624 31.175L24.190624 28.6125L25.940624 27.55L25.940624 31.175L27.70625 31.175L27.70625 32.55L25.940624 32.55L25.940624 38.6125Q25.940624 39.3625 26.034374 39.58125Q26.128124 39.784374 26.33125 39.925Q26.55 40.05 26.940624 40.05Q27.221874 40.05 27.70625 39.971874ZM29.8625 41.55L29.8625 27.2375L31.628124 27.2375L31.628124 32.3625Q32.8625 30.940624 34.7375 30.940624Q35.878124 30.940624 36.721874 31.39375Q37.58125 31.846874 37.940624 32.659374Q38.315624 33.45625 38.315624 34.971874L38.315624 41.55L36.565624 41.55L36.565624 34.971874Q36.565624 33.659374 35.9875 33.065624Q35.409374 32.45625 34.378124 32.45625Q33.596874 32.45625 32.89375 32.8625Q32.20625 33.26875 31.909374 33.971874Q31.628124 34.659374 31.628124 35.878124L31.628124 41.55L29.8625 41.55ZM39.846874 41.55L39.846874 31.175L41.425 31.175L41.425 32.753124Q42.034374 31.64375 42.55 31.3Q43.065624 30.940624 43.675 30.940624Q44.565624 30.940624 45.4875 31.503124L44.878124 33.14375Q44.2375 32.753124 43.596874 32.753124Q43.01875 32.753124 42.55 33.1125Q42.096874 33.45625 41.89375 34.065624Q41.6125 35.003124 41.6125 36.1125L41.6125 41.55L39.846874 41.55ZM46.221874 36.3625Q46.221874 33.4875 47.815624 32.096874Q49.159374 30.940624 51.08125 30.940624Q53.221874 30.940624 54.565624 32.346874Q55.925 33.753124 55.925 36.221874Q55.925 38.221874 55.33125 39.378124Q54.7375 40.51875 53.58125 41.159374Q52.440624 41.784374 51.08125 41.784374Q48.89375 41.784374 47.55 40.39375Q46.221874 38.9875 46.221874 36.3625ZM48.01875 36.3625Q48.01875 38.3625 48.878124 39.346874Q49.753124 40.33125 51.08125 40.33125Q52.39375 40.33125 53.253124 39.346874Q54.128124 38.346874 54.128124 36.3Q54.128124 34.378124 53.253124 33.39375Q52.378124 32.39375 51.08125 32.39375Q49.753124 32.39375 48.878124 33.39375Q48.01875 34.378124 48.01875 36.3625ZM64.65938 41.55L64.65938 40.01875Q63.45625 41.784374 61.378124 41.784374Q60.45625 41.784374 59.659374 41.440624Q58.8625 41.08125 58.471874 40.55Q58.096874 40.01875 57.940624 39.2375Q57.83125 38.721874 57.83125 37.596874L57.83125 31.175L59.58125 31.175L59.58125 36.925Q59.58125 38.3 59.690624 38.784374Q59.8625 39.471874 60.39375 39.878124Q60.940624 40.26875 61.721874 40.26875Q62.51875 40.26875 63.20625 39.8625Q63.909374 39.45625 64.19063 38.76875Q64.4875 38.065624 64.4875 36.7375L64.4875 31.175L66.2375 31.175L66.2375 41.55L64.65938 41.55ZM67.55 42.409374L69.25313 42.659374Q69.3625 43.45625 69.84688 43.815624Q70.50313 44.3 71.64375 44.3Q72.8625 44.3 73.51875 43.815624Q74.19063 43.33125 74.425 42.45625Q74.56563 41.909374 74.55 40.190624Q73.39375 41.55 71.675 41.55Q69.53438 41.55 68.3625 40.003124Q67.19063 38.45625 67.19063 36.3Q67.19063 34.815624 67.72188 33.565624Q68.26875 32.315624 69.28438 31.628124Q70.31563 30.940624 71.69063 30.940624Q73.51875 30.940624 74.72188 32.425L74.72188 31.175L76.33125 31.175L76.33125 40.14375Q76.33125 42.565624 75.83125 43.565624Q75.34688 44.58125 74.26875 45.159374Q73.20625 45.753124 71.64375 45.753124Q69.8 45.753124 68.64375 44.925Q67.50313 44.096874 67.55 42.409374ZM69.00313 36.175Q69.00313 38.221874 69.81563 39.159374Q70.62813 40.096874 71.84688 40.096874Q73.05 40.096874 73.8625 39.159374Q74.69063 38.221874 74.69063 36.2375Q74.69063 34.33125 73.84688 33.3625Q73.00313 32.39375 71.81563 32.39375Q70.64375 32.39375 69.81563 33.346874Q69.00313 34.3 69.00313 36.175ZM78.8625 41.55L78.8625 27.2375L80.62813 27.2375L80.62813 32.3625Q81.8625 30.940624 83.7375 30.940624Q84.87813 30.940624 85.72188 31.39375Q86.58125 31.846874 86.94063 32.659374Q87.31563 33.45625 87.31563 34.971874L87.31563 41.55L85.56563 41.55L85.56563 34.971874Q85.56563 33.659374 84.9875 33.065624Q84.40938 32.45625 83.37813 32.45625Q82.59688 32.45625 81.89375 32.8625Q81.20625 33.26875 80.90938 33.971874Q80.62813 34.659374 80.62813 35.878124L80.62813 41.55L78.8625 41.55ZM88.8625 45.51875L88.8625 31.175L90.47188 31.175L90.47188 32.51875Q91.03438 31.7375 91.7375 31.346874Q92.45625 30.940624 93.47188 30.940624Q94.8 30.940624 95.81563 31.628124Q96.83125 32.315624 97.34688 33.565624Q97.87813 34.8 97.87813 36.284374Q97.87813 37.878124 97.3 39.159374Q96.7375 40.425 95.64375 41.1125Q94.55 41.784374 93.34688 41.784374Q92.47188 41.784374 91.76875 41.409374Q91.08125 41.034374 90.62813 40.471874L90.62813 45.51875L88.8625 45.51875ZM90.45625 36.425Q90.45625 38.425 91.26875 39.378124Q92.08125 40.33125 93.2375 40.33125Q94.40938 40.33125 95.2375 39.346874Q96.08125 38.3625 96.08125 36.26875Q96.08125 34.3 95.25313 33.315624Q94.44063 32.315624 93.31563 32.315624Q92.19063 32.315624 91.31563 33.378124Q90.45625 34.425 90.45625 36.425ZM106.65938 41.55L106.65938 40.01875Q105.45625 41.784374 103.37813 41.784374Q102.45625 41.784374 101.65938 41.440624Q100.8625 41.08125 100.47188 40.55Q100.09688 40.01875 99.94063 39.2375Q99.83125 38.721874 99.83125 37.596874L99.83125 31.175L101.58125 31.175L101.58125 36.925Q101.58125 38.3 101.69063 38.784374Q101.8625 39.471874 102.39375 39.878124Q102.94063 40.26875 103.72188 40.26875Q104.51875 40.26875 105.20625 39.8625Q105.90938 39.45625 106.19063 38.76875Q106.4875 38.065624 106.4875 36.7375L106.4875 31.175L108.2375 31.175L108.2375 41.55L106.65938 41.55ZM113.70625 39.971874L113.95625 41.534374Q113.22188 41.690624 112.62813 41.690624Q111.675 41.690624 111.14375 41.39375Q110.62813 41.08125 110.40938 40.596874Q110.19063 40.096874 110.19063 38.51875L110.19063 32.55L108.90938 32.55L108.90938 31.175L110.19063 31.175L110.19063 28.6125L111.94063 27.55L111.94063 31.175L113.70625 31.175L113.70625 32.55L111.94063 32.55L111.94063 38.6125Q111.94063 39.3625 112.03438 39.58125Q112.12813 39.784374 112.33125 39.925Q112.55 40.05 112.94063 40.05Q113.22188 40.05 113.70625 39.971874ZM123.78438 41.55L120.6125 31.175L122.425 31.175L124.08125 37.159374L124.69063 39.39375Q124.7375 39.221874 125.22188 37.253124L126.87813 31.175L128.69063 31.175L130.2375 37.190624L130.75313 39.175L131.34688 37.175L133.12813 31.175L134.83125 31.175L131.59688 41.55L129.76875 41.55L128.1125 35.33125L127.72188 33.565624L125.6125 41.55L123.78438 41.55ZM136.87813 29.253124L136.87813 27.2375L138.64375 27.2375L138.64375 29.253124L136.87813 29.253124ZM136.87813 41.55L136.87813 31.175L138.64375 31.175L138.64375 41.55L136.87813 41.55ZM144.70625 39.971874L144.95625 41.534374Q144.22188 41.690624 143.62813 41.690624Q142.675 41.690624 142.14375 41.39375Q141.62813 41.08125 141.40938 40.596874Q141.19063 40.096874 141.19063 38.51875L141.19063 32.55L139.90938 32.55L139.90938 31.175L141.19063 31.175L141.19063 28.6125L142.94063 27.55L142.94063 31.175L144.70625 31.175L144.70625 32.55L142.94063 32.55L142.94063 38.6125Q142.94063 39.3625 143.03438 39.58125Q143.12813 39.784374 143.33125 39.925Q143.55 40.05 143.94063 40.05Q144.22188 40.05 144.70625 39.971874ZM146.8625 41.55L146.8625 27.2375L148.62813 27.2375L148.62813 32.3625Q149.8625 30.940624 151.7375 30.940624Q152.87813 30.940624 153.72188 31.39375Q154.58125 31.846874 154.94063 32.659374Q155.31563 33.45625 155.31563 34.971874L155.31563 41.55L153.56563 41.55L153.56563 34.971874Q153.56563 33.659374 152.9875 33.065624Q152.40938 32.45625 151.37813 32.45625Q150.59688 32.45625 149.89375 32.8625Q149.20625 33.26875 148.90938 33.971874Q148.62813 34.659374 148.62813 35.878124L148.62813 41.55L146.8625 41.55ZM169.00313 41.55L167.2375 41.55L167.2375 30.346874Q166.6125 30.95625 165.58125 31.565624Q164.55 32.159374 163.72188 32.471874L163.72188 30.76875Q165.20625 30.08125 166.3 29.096874Q167.40938 28.096874 167.8625 27.175L169.00313 27.175L169.00313 41.55ZM173.37813 34.4875Q173.37813 31.95625 173.89375 30.409374Q174.425 28.846874 175.45625 28.01875Q176.4875 27.175 178.05 27.175Q179.20625 27.175 180.06563 27.64375Q180.94063 28.096874 181.50313 28.971874Q182.06563 29.846874 182.39375 31.1125Q182.72188 32.3625 182.72188 34.4875Q182.72188 37.003124 182.19063 38.55Q181.675 40.096874 180.64375 40.95625Q179.62813 41.8 178.05 41.8Q175.97188 41.8 174.8 40.315624Q173.37813 38.51875 173.37813 34.4875ZM175.19063 34.4875Q175.19063 38.01875 176.00313 39.190624Q176.83125 40.346874 178.05 40.346874Q179.25313 40.346874 180.08125 39.175Q180.90938 38.003124 180.90938 34.4875Q180.90938 30.95625 180.08125 29.8Q179.25313 28.628124 178.03438 28.628124Q176.81563 28.628124 176.09688 29.659374Q175.19063 30.95625 175.19063 34.4875ZM190.8625 29.26875L190.8625 27.2375L192.6125 27.2375L192.6125 29.26875L190.8625 29.26875ZM188.62813 45.58125L188.95625 44.08125Q189.4875 44.221874 189.8 44.221874Q190.33125 44.221874 190.59688 43.8625Q190.8625 43.503124 190.8625 42.08125L190.8625 31.175L192.6125 31.175L192.6125 42.1125Q192.6125 44.034374 192.1125 44.784374Q191.4875 45.753124 190.00313 45.753124Q189.3 45.753124 188.62813 45.58125ZM194.8625 41.55L194.8625 31.175L196.44063 31.175L196.44063 32.628124Q196.925 31.878124 197.7375 31.409374Q198.55 30.940624 199.58125 30.940624Q200.7375 30.940624 201.47188 31.425Q202.20625 31.89375 202.51875 32.753124Q203.75313 30.940624 205.72188 30.940624Q207.26875 30.940624 208.09688 31.8Q208.925 32.659374 208.925 34.425L208.925 41.55L207.175 41.55L207.175 35.01875Q207.175 33.95625 207.00313 33.503124Q206.83125 33.034374 206.37813 32.753124Q205.94063 32.471874 205.33125 32.471874Q204.2375 32.471874 203.50313 33.20625Q202.78438 33.925 202.78438 35.51875L202.78438 41.55L201.03438 41.55L201.03438 34.815624Q201.03438 33.64375 200.59688 33.065624Q200.175 32.471874 199.19063 32.471874Q198.45625 32.471874 197.81563 32.8625Q197.19063 33.253124 196.90938 34.003124Q196.62813 34.753124 196.62813 36.175L196.62813 41.55L194.8625 41.55ZM217.97188 38.20625L219.78438 38.440624Q219.3625 40.01875 218.19063 40.909374Q217.03438 41.784374 215.22188 41.784374Q212.95625 41.784374 211.6125 40.39375Q210.28438 38.9875 210.28438 36.45625Q210.28438 33.83125 211.62813 32.39375Q212.97188 30.940624 215.12813 30.940624Q217.20625 30.940624 218.51875 32.3625Q219.84688 33.76875 219.84688 36.346874Q219.84688 36.503124 219.83125 36.815624L212.09688 36.815624Q212.19063 38.51875 213.06563 39.425Q213.94063 40.33125 215.2375 40.33125Q216.20625 40.33125 216.87813 39.83125Q217.56563 39.315624 217.97188 38.20625ZM212.19063 35.3625L217.9875 35.3625Q217.87813 34.065624 217.33125 33.409374Q216.4875 32.39375 215.14375 32.39375Q213.94063 32.39375 213.1125 33.20625Q212.28438 34.003124 212.19063 35.3625ZM225.70625 39.971874L225.95625 41.534374Q225.22188 41.690624 224.62813 41.690624Q223.675 41.690624 223.14375 41.39375Q222.62813 41.08125 222.40938 40.596874Q222.19063 40.096874 222.19063 38.51875L222.19063 32.55L220.90938 32.55L220.90938 31.175L222.19063 31.175L222.19063 28.6125L223.94063 27.55L223.94063 31.175L225.70625 31.175L225.70625 32.55L223.94063 32.55L223.94063 38.6125Q223.94063 39.3625 224.03438 39.58125Q224.12813 39.784374 224.33125 39.925Q224.55 40.05 224.94063 40.05Q225.22188 40.05 225.70625 39.971874ZM234.97188 38.20625L236.78438 38.440624Q236.3625 40.01875 235.19063 40.909374Q234.03438 41.784374 232.22188 41.784374Q229.95625 41.784374 228.6125 40.39375Q227.28438 38.9875 227.28438 36.45625Q227.28438 33.83125 228.62813 32.39375Q229.97188 30.940624 232.12813 30.940624Q234.20625 30.940624 235.51875 32.3625Q236.84688 33.76875 236.84688 36.346874Q236.84688 36.503124 236.83125 36.815624L229.09688 36.815624Q229.19063 38.51875 230.06563 39.425Q230.94063 40.33125 232.2375 40.33125Q233.20625 40.33125 233.87813 39.83125Q234.56563 39.315624 234.97188 38.20625ZM229.19063 35.3625L234.9875 35.3625Q234.87813 34.065624 234.33125 33.409374Q233.4875 32.39375 232.14375 32.39375Q230.94063 32.39375 230.1125 33.20625Q229.28438 34.003124 229.19063 35.3625ZM238.84688 41.55L238.84688 31.175L240.425 31.175L240.425 32.753124Q241.03438 31.64375 241.55 31.3Q242.06563 30.940624 242.675 30.940624Q243.56563 30.940624 244.4875 31.503124L243.87813 33.14375Q243.2375 32.753124 242.59688 32.753124Q242.01875 32.753124 241.55 33.1125Q241.09688 33.45625 240.89375 34.065624Q240.6125 35.003124 240.6125 36.1125L240.6125 41.55L238.84688 41.55ZM255.70625 39.971874L255.95625 41.534374Q255.22188 41.690624 254.62813 41.690624Q253.675 41.690624 253.14375 41.39375Q252.62813 41.08125 252.40938 40.596874Q252.19063 40.096874 252.19063 38.51875L252.19063 32.55L250.90938 32.55L250.90938 31.175L252.19063 31.175L252.19063 28.6125L253.94063 27.55L253.94063 31.175L255.70625 31.175L255.70625 32.55L253.94063 32.55L253.94063 38.6125Q253.94063 39.3625 254.03438 39.58125Q254.12813 39.784374 254.33125 39.925Q254.55 40.05 254.94063 40.05Q255.22188 40.05 255.70625 39.971874ZM257.8625 41.55L257.8625 27.2375L259.6281 27.2375L259.6281 32.3625Q260.8625 30.940624 262.7375 30.940624Q263.8781 30.940624 264.72186 31.39375Q265.58124 31.846874 265.9406 32.659374Q266.3156 33.45625 266.3156 34.971874L266.3156 41.55L264.5656 41.55L264.5656 34.971874Q264.5656 33.659374 263.9875 33.065624Q263.40936 32.45625 262.3781 32.45625Q261.59686 32.45625 260.89374 32.8625Q260.20624 33.26875 259.90936 33.971874Q259.6281 34.659374 259.6281 35.878124L259.6281 41.55L257.8625 41.55ZM267.84686 41.55L267.84686 31.175L269.425 31.175L269.425 32.753124Q270.03436 31.64375 270.55 31.3Q271.0656 30.940624 271.675 30.940624Q272.5656 30.940624 273.4875 31.503124L272.8781 33.14375Q272.2375 32.753124 271.59686 32.753124Q271.01874 32.753124 270.55 33.1125Q270.09686 33.45625 269.89374 34.065624Q269.6125 35.003124 269.6125 36.1125L269.6125 41.55L267.84686 41.55ZM281.97186 38.20625L283.78436 38.440624Q283.3625 40.01875 282.1906 40.909374Q281.03436 41.784374 279.22186 41.784374Q276.95624 41.784374 275.6125 40.39375Q274.28436 38.9875 274.28436 36.45625Q274.28436 33.83125 275.6281 32.39375Q276.97186 30.940624 279.1281 30.940624Q281.20624 30.940624 282.51874 32.3625Q283.84686 33.76875 283.84686 36.346874Q283.84686 36.503124 283.83124 36.815624L276.09686 36.815624Q276.1906 38.51875 277.0656 39.425Q277.9406 40.33125 279.2375 40.33125Q280.20624 40.33125 280.8781 39.83125Q281.5656 39.315624 281.97186 38.20625ZM276.1906 35.3625L281.9875 35.3625Q281.8781 34.065624 281.33124 33.409374Q280.4875 32.39375 279.14374 32.39375Q277.9406 32.39375 277.1125 33.20625Q276.28436 34.003124 276.1906 35.3625ZM292.64374 40.26875Q291.65936 41.096874 290.7531 41.440624Q289.84686 41.784374 288.8156 41.784374Q287.1125 41.784374 286.1906 40.95625Q285.26874 40.1125 285.26874 38.815624Q285.26874 38.05 285.6125 37.425Q285.97186 36.8 286.53436 36.425Q287.09686 36.034374 287.8 35.83125Q288.3156 35.70625 289.3625 35.565624Q291.4875 35.315624 292.4875 34.971874Q292.5031 34.6125 292.5031 34.503124Q292.5031 33.440624 292.0031 32.9875Q291.33124 32.39375 290.0031 32.39375Q288.7531 32.39375 288.15936 32.83125Q287.58124 33.26875 287.3 34.378124L285.58124 34.14375Q285.8156 33.034374 286.34686 32.3625Q286.8781 31.675 287.89374 31.315624Q288.90936 30.940624 290.2531 30.940624Q291.58124 30.940624 292.40936 31.253124Q293.2375 31.565624 293.6281 32.05Q294.01874 32.51875 294.175 33.2375Q294.26874 33.690624 294.26874 34.8625L294.26874 37.20625Q294.26874 39.659374 294.3781 40.315624Q294.4875 40.95625 294.83124 41.55L292.9875 41.55Q292.72186 41.003124 292.64374 40.26875ZM292.4875 36.346874Q291.53436 36.7375 289.6125 37.003124Q288.53436 37.159374 288.08124 37.3625Q287.64374 37.55 287.39374 37.925Q287.14374 38.3 287.14374 38.76875Q287.14374 39.471874 287.675 39.940624Q288.20624 40.409374 289.2375 40.409374Q290.2531 40.409374 291.03436 39.971874Q291.83124 39.51875 292.20624 38.753124Q292.4875 38.14375 292.4875 36.9875L292.4875 36.346874ZM303.59686 41.55L303.59686 40.2375Q302.6125 41.784374 300.6906 41.784374Q299.45624 41.784374 298.40936 41.096874Q297.3781 40.409374 296.8 39.190624Q296.2375 37.971874 296.2375 36.378124Q296.2375 34.815624 296.7531 33.55Q297.26874 32.284374 298.3 31.6125Q299.34686 30.940624 300.6125 30.940624Q301.55 30.940624 302.28436 31.346874Q303.01874 31.7375 303.4875 32.3625L303.4875 27.2375L305.22186 27.2375L305.22186 41.55L303.59686 41.55ZM298.03436 36.378124Q298.03436 38.3625 298.8781 39.346874Q299.72186 40.33125 300.8625 40.33125Q302.01874 40.33125 302.8156 39.39375Q303.6281 38.45625 303.6281 36.51875Q303.6281 34.39375 302.8 33.39375Q301.9875 32.39375 300.78436 32.39375Q299.6125 32.39375 298.8156 33.3625Q298.03436 34.315624 298.03436 36.378124ZM307.15936 38.45625L308.90936 38.175Q309.05 39.221874 309.72186 39.784374Q310.39374 40.33125 311.59686 40.33125Q312.8 40.33125 313.3781 39.846874Q313.97186 39.346874 313.97186 38.690624Q313.97186 38.096874 313.45624 37.753124Q313.09686 37.51875 311.65936 37.159374Q309.72186 36.659374 308.97186 36.315624Q308.2375 35.95625 307.84686 35.33125Q307.45624 34.690624 307.45624 33.925Q307.45624 33.2375 307.76874 32.64375Q308.09686 32.05 308.64374 31.659374Q309.05 31.3625 309.7531 31.159374Q310.47186 30.940624 311.28436 30.940624Q312.5031 30.940624 313.425 31.3Q314.34686 31.64375 314.78436 32.253124Q315.22186 32.846874 315.39374 33.846874L313.675 34.08125Q313.55 33.284374 312.9875 32.846874Q312.425 32.39375 311.40936 32.39375Q310.1906 32.39375 309.675 32.8Q309.15936 33.190624 309.15936 33.721874Q309.15936 34.065624 309.3781 34.346874Q309.58124 34.628124 310.05 34.815624Q310.3156 34.909374 311.59686 35.253124Q313.47186 35.753124 314.20624 36.08125Q314.9406 36.39375 315.3625 37.003124Q315.78436 37.596874 315.78436 38.503124Q315.78436 39.378124 315.26874 40.159374Q314.7531 40.940624 313.78436 41.3625Q312.8156 41.784374 311.59686 41.784374Q309.58124 41.784374 308.51874 40.940624Q307.45624 40.096874 307.15936 38.45625Z" fill-rule="nonzero"/></svg>